%TF.GenerationSoftware,KiCad,Pcbnew,(6.0.10-0)*%
%TF.CreationDate,2023-02-01T12:15:06-08:00*%
%TF.ProjectId,DRF1268T,44524631-3236-4385-942e-6b696361645f,rev?*%
%TF.SameCoordinates,Original*%
%TF.FileFunction,Drillmap*%
%TF.FilePolarity,Positive*%
%FSLAX45Y45*%
G04 Gerber Fmt 4.5, Leading zero omitted, Abs format (unit mm)*
G04 Created by KiCad (PCBNEW (6.0.10-0)) date 2023-02-01 12:15:06*
%MOMM*%
%LPD*%
G01*
G04 APERTURE LIST*
%ADD10C,0.200000*%
%ADD11C,0.020000*%
%ADD12C,0.040000*%
%ADD13C,0.100000*%
%ADD14C,0.160000*%
G04 APERTURE END LIST*
D10*
X14274800Y-9626600D02*
X14274800Y-12192000D01*
X14274800Y-9626600D02*
X17018000Y-9626600D01*
X17018000Y-12192000D02*
X14274800Y-12192000D01*
X17018000Y-9626600D02*
X17018000Y-12192000D01*
D11*
X14544200Y-10645300D02*
X14564200Y-10665300D01*
X14564200Y-10645300D02*
X14544200Y-10665300D01*
X14544200Y-10797700D02*
X14564200Y-10817700D01*
X14564200Y-10797700D02*
X14544200Y-10817700D01*
X14645800Y-10556400D02*
X14665800Y-10576400D01*
X14665800Y-10556400D02*
X14645800Y-10576400D01*
X14645800Y-10899300D02*
X14665800Y-10919300D01*
X14665800Y-10899300D02*
X14645800Y-10919300D01*
X14798200Y-10556400D02*
X14818200Y-10576400D01*
X14818200Y-10556400D02*
X14798200Y-10576400D01*
X14798200Y-10899300D02*
X14818200Y-10919300D01*
X14818200Y-10899300D02*
X14798200Y-10919300D01*
D12*
X15480600Y-11091800D02*
G75*
G03*
X15480600Y-11091800I-20000J0D01*
G01*
X15488600Y-11991800D02*
G75*
G03*
X15488600Y-11991800I-20000J0D01*
G01*
X16834800Y-11988800D02*
G75*
G03*
X16834800Y-11988800I-20000J0D01*
G01*
X16847500Y-11091800D02*
G75*
G03*
X16847500Y-11091800I-20000J0D01*
G01*
D13*
X14500400Y-9782300D02*
X14500400Y-9882300D01*
X14450400Y-9832300D02*
X14550400Y-9832300D01*
X14754400Y-9782300D02*
X14754400Y-9882300D01*
X14704400Y-9832300D02*
X14804400Y-9832300D01*
X15008400Y-9782300D02*
X15008400Y-9882300D01*
X14958400Y-9832300D02*
X15058400Y-9832300D01*
X15262400Y-9782300D02*
X15262400Y-9882300D01*
X15212400Y-9832300D02*
X15312400Y-9832300D01*
X15516400Y-9782300D02*
X15516400Y-9882300D01*
X15466400Y-9832300D02*
X15566400Y-9832300D01*
X15770400Y-9782300D02*
X15770400Y-9882300D01*
X15720400Y-9832300D02*
X15820400Y-9832300D01*
X16024400Y-9782300D02*
X16024400Y-9882300D01*
X15974400Y-9832300D02*
X16074400Y-9832300D01*
X16278400Y-9782300D02*
X16278400Y-9882300D01*
X16228400Y-9832300D02*
X16328400Y-9832300D01*
X16532400Y-9782300D02*
X16532400Y-9882300D01*
X16482400Y-9832300D02*
X16582400Y-9832300D01*
X16786400Y-9782300D02*
X16786400Y-9882300D01*
X16736400Y-9832300D02*
X16836400Y-9832300D01*
D14*
X14534569Y-10534369D02*
X14534569Y-10421231D01*
X14421431Y-10421231D01*
X14421431Y-10534369D01*
X14534569Y-10534369D01*
X14534569Y-11042369D02*
X14534569Y-10929231D01*
X14421431Y-10929231D01*
X14421431Y-11042369D01*
X14534569Y-11042369D01*
X14788569Y-10788369D02*
X14788569Y-10675231D01*
X14675431Y-10675231D01*
X14675431Y-10788369D01*
X14788569Y-10788369D01*
X15042569Y-10534369D02*
X15042569Y-10421231D01*
X14929431Y-10421231D01*
X14929431Y-10534369D01*
X15042569Y-10534369D01*
X15042569Y-11042369D02*
X15042569Y-10929231D01*
X14929431Y-10929231D01*
X14929431Y-11042369D01*
X15042569Y-11042369D01*
D10*
X14522419Y-12512476D02*
X14522419Y-12312476D01*
X14570038Y-12312476D01*
X14598609Y-12322000D01*
X14617657Y-12341048D01*
X14627181Y-12360095D01*
X14636705Y-12398190D01*
X14636705Y-12426762D01*
X14627181Y-12464857D01*
X14617657Y-12483905D01*
X14598609Y-12502952D01*
X14570038Y-12512476D01*
X14522419Y-12512476D01*
X14722419Y-12512476D02*
X14722419Y-12379143D01*
X14722419Y-12417238D02*
X14731943Y-12398190D01*
X14741467Y-12388667D01*
X14760514Y-12379143D01*
X14779562Y-12379143D01*
X14846228Y-12512476D02*
X14846228Y-12379143D01*
X14846228Y-12312476D02*
X14836705Y-12322000D01*
X14846228Y-12331524D01*
X14855752Y-12322000D01*
X14846228Y-12312476D01*
X14846228Y-12331524D01*
X14970038Y-12512476D02*
X14950990Y-12502952D01*
X14941467Y-12483905D01*
X14941467Y-12312476D01*
X15074800Y-12512476D02*
X15055752Y-12502952D01*
X15046228Y-12483905D01*
X15046228Y-12312476D01*
X15303371Y-12512476D02*
X15303371Y-12312476D01*
X15370038Y-12455333D01*
X15436705Y-12312476D01*
X15436705Y-12512476D01*
X15617657Y-12512476D02*
X15617657Y-12407714D01*
X15608133Y-12388667D01*
X15589086Y-12379143D01*
X15550990Y-12379143D01*
X15531943Y-12388667D01*
X15617657Y-12502952D02*
X15598609Y-12512476D01*
X15550990Y-12512476D01*
X15531943Y-12502952D01*
X15522419Y-12483905D01*
X15522419Y-12464857D01*
X15531943Y-12445809D01*
X15550990Y-12436286D01*
X15598609Y-12436286D01*
X15617657Y-12426762D01*
X15712895Y-12379143D02*
X15712895Y-12579143D01*
X15712895Y-12388667D02*
X15731943Y-12379143D01*
X15770038Y-12379143D01*
X15789086Y-12388667D01*
X15798609Y-12398190D01*
X15808133Y-12417238D01*
X15808133Y-12474381D01*
X15798609Y-12493428D01*
X15789086Y-12502952D01*
X15770038Y-12512476D01*
X15731943Y-12512476D01*
X15712895Y-12502952D01*
X15893848Y-12493428D02*
X15903371Y-12502952D01*
X15893848Y-12512476D01*
X15884324Y-12502952D01*
X15893848Y-12493428D01*
X15893848Y-12512476D01*
X15893848Y-12388667D02*
X15903371Y-12398190D01*
X15893848Y-12407714D01*
X15884324Y-12398190D01*
X15893848Y-12388667D01*
X15893848Y-12407714D01*
D11*
X14244800Y-12832000D02*
X14264800Y-12852000D01*
X14264800Y-12832000D02*
X14244800Y-12852000D01*
D10*
X14560514Y-12732476D02*
X14579562Y-12732476D01*
X14598609Y-12742000D01*
X14608133Y-12751524D01*
X14617657Y-12770571D01*
X14627181Y-12808667D01*
X14627181Y-12856286D01*
X14617657Y-12894381D01*
X14608133Y-12913428D01*
X14598609Y-12922952D01*
X14579562Y-12932476D01*
X14560514Y-12932476D01*
X14541467Y-12922952D01*
X14531943Y-12913428D01*
X14522419Y-12894381D01*
X14512895Y-12856286D01*
X14512895Y-12808667D01*
X14522419Y-12770571D01*
X14531943Y-12751524D01*
X14541467Y-12742000D01*
X14560514Y-12732476D01*
X14712895Y-12913428D02*
X14722419Y-12922952D01*
X14712895Y-12932476D01*
X14703371Y-12922952D01*
X14712895Y-12913428D01*
X14712895Y-12932476D01*
X14798609Y-12751524D02*
X14808133Y-12742000D01*
X14827181Y-12732476D01*
X14874800Y-12732476D01*
X14893848Y-12742000D01*
X14903371Y-12751524D01*
X14912895Y-12770571D01*
X14912895Y-12789619D01*
X14903371Y-12818190D01*
X14789086Y-12932476D01*
X14912895Y-12932476D01*
X15036705Y-12732476D02*
X15055752Y-12732476D01*
X15074800Y-12742000D01*
X15084324Y-12751524D01*
X15093848Y-12770571D01*
X15103371Y-12808667D01*
X15103371Y-12856286D01*
X15093848Y-12894381D01*
X15084324Y-12913428D01*
X15074800Y-12922952D01*
X15055752Y-12932476D01*
X15036705Y-12932476D01*
X15017657Y-12922952D01*
X15008133Y-12913428D01*
X14998609Y-12894381D01*
X14989086Y-12856286D01*
X14989086Y-12808667D01*
X14998609Y-12770571D01*
X15008133Y-12751524D01*
X15017657Y-12742000D01*
X15036705Y-12732476D01*
X15227181Y-12732476D02*
X15246228Y-12732476D01*
X15265276Y-12742000D01*
X15274800Y-12751524D01*
X15284324Y-12770571D01*
X15293848Y-12808667D01*
X15293848Y-12856286D01*
X15284324Y-12894381D01*
X15274800Y-12913428D01*
X15265276Y-12922952D01*
X15246228Y-12932476D01*
X15227181Y-12932476D01*
X15208133Y-12922952D01*
X15198609Y-12913428D01*
X15189086Y-12894381D01*
X15179562Y-12856286D01*
X15179562Y-12808667D01*
X15189086Y-12770571D01*
X15198609Y-12751524D01*
X15208133Y-12742000D01*
X15227181Y-12732476D01*
X15379562Y-12932476D02*
X15379562Y-12799143D01*
X15379562Y-12818190D02*
X15389086Y-12808667D01*
X15408133Y-12799143D01*
X15436705Y-12799143D01*
X15455752Y-12808667D01*
X15465276Y-12827714D01*
X15465276Y-12932476D01*
X15465276Y-12827714D02*
X15474800Y-12808667D01*
X15493848Y-12799143D01*
X15522419Y-12799143D01*
X15541467Y-12808667D01*
X15550990Y-12827714D01*
X15550990Y-12932476D01*
X15646228Y-12932476D02*
X15646228Y-12799143D01*
X15646228Y-12818190D02*
X15655752Y-12808667D01*
X15674800Y-12799143D01*
X15703371Y-12799143D01*
X15722419Y-12808667D01*
X15731943Y-12827714D01*
X15731943Y-12932476D01*
X15731943Y-12827714D02*
X15741467Y-12808667D01*
X15760514Y-12799143D01*
X15789086Y-12799143D01*
X15808133Y-12808667D01*
X15817657Y-12827714D01*
X15817657Y-12932476D01*
X16208133Y-12722952D02*
X16036705Y-12980095D01*
X16465276Y-12732476D02*
X16484324Y-12732476D01*
X16503371Y-12742000D01*
X16512895Y-12751524D01*
X16522419Y-12770571D01*
X16531943Y-12808667D01*
X16531943Y-12856286D01*
X16522419Y-12894381D01*
X16512895Y-12913428D01*
X16503371Y-12922952D01*
X16484324Y-12932476D01*
X16465276Y-12932476D01*
X16446228Y-12922952D01*
X16436705Y-12913428D01*
X16427181Y-12894381D01*
X16417657Y-12856286D01*
X16417657Y-12808667D01*
X16427181Y-12770571D01*
X16436705Y-12751524D01*
X16446228Y-12742000D01*
X16465276Y-12732476D01*
X16617657Y-12913428D02*
X16627181Y-12922952D01*
X16617657Y-12932476D01*
X16608133Y-12922952D01*
X16617657Y-12913428D01*
X16617657Y-12932476D01*
X16750990Y-12732476D02*
X16770038Y-12732476D01*
X16789086Y-12742000D01*
X16798610Y-12751524D01*
X16808133Y-12770571D01*
X16817657Y-12808667D01*
X16817657Y-12856286D01*
X16808133Y-12894381D01*
X16798610Y-12913428D01*
X16789086Y-12922952D01*
X16770038Y-12932476D01*
X16750990Y-12932476D01*
X16731943Y-12922952D01*
X16722419Y-12913428D01*
X16712895Y-12894381D01*
X16703371Y-12856286D01*
X16703371Y-12808667D01*
X16712895Y-12770571D01*
X16722419Y-12751524D01*
X16731943Y-12742000D01*
X16750990Y-12732476D01*
X16941467Y-12732476D02*
X16960514Y-12732476D01*
X16979562Y-12742000D01*
X16989086Y-12751524D01*
X16998610Y-12770571D01*
X17008133Y-12808667D01*
X17008133Y-12856286D01*
X16998610Y-12894381D01*
X16989086Y-12913428D01*
X16979562Y-12922952D01*
X16960514Y-12932476D01*
X16941467Y-12932476D01*
X16922419Y-12922952D01*
X16912895Y-12913428D01*
X16903371Y-12894381D01*
X16893848Y-12856286D01*
X16893848Y-12808667D01*
X16903371Y-12770571D01*
X16912895Y-12751524D01*
X16922419Y-12742000D01*
X16941467Y-12732476D01*
X17074800Y-12732476D02*
X17208133Y-12732476D01*
X17122419Y-12932476D01*
X17293848Y-12932476D02*
X17331943Y-12932476D01*
X17350990Y-12922952D01*
X17360514Y-12913428D01*
X17379562Y-12884857D01*
X17389086Y-12846762D01*
X17389086Y-12770571D01*
X17379562Y-12751524D01*
X17370038Y-12742000D01*
X17350990Y-12732476D01*
X17312895Y-12732476D01*
X17293848Y-12742000D01*
X17284324Y-12751524D01*
X17274800Y-12770571D01*
X17274800Y-12818190D01*
X17284324Y-12837238D01*
X17293848Y-12846762D01*
X17312895Y-12856286D01*
X17350990Y-12856286D01*
X17370038Y-12846762D01*
X17379562Y-12837238D01*
X17389086Y-12818190D01*
X17465276Y-12732476D02*
X17465276Y-12770571D01*
X17541467Y-12732476D02*
X17541467Y-12770571D01*
X17836705Y-13008667D02*
X17827181Y-12999143D01*
X17808133Y-12970571D01*
X17798610Y-12951524D01*
X17789086Y-12922952D01*
X17779562Y-12875333D01*
X17779562Y-12837238D01*
X17789086Y-12789619D01*
X17798610Y-12761048D01*
X17808133Y-12742000D01*
X17827181Y-12713428D01*
X17836705Y-12703905D01*
X17998610Y-12732476D02*
X17960514Y-12732476D01*
X17941467Y-12742000D01*
X17931943Y-12751524D01*
X17912895Y-12780095D01*
X17903371Y-12818190D01*
X17903371Y-12894381D01*
X17912895Y-12913428D01*
X17922419Y-12922952D01*
X17941467Y-12932476D01*
X17979562Y-12932476D01*
X17998610Y-12922952D01*
X18008133Y-12913428D01*
X18017657Y-12894381D01*
X18017657Y-12846762D01*
X18008133Y-12827714D01*
X17998610Y-12818190D01*
X17979562Y-12808667D01*
X17941467Y-12808667D01*
X17922419Y-12818190D01*
X17912895Y-12827714D01*
X17903371Y-12846762D01*
X18255752Y-12932476D02*
X18255752Y-12732476D01*
X18341467Y-12932476D02*
X18341467Y-12827714D01*
X18331943Y-12808667D01*
X18312895Y-12799143D01*
X18284324Y-12799143D01*
X18265276Y-12808667D01*
X18255752Y-12818190D01*
X18465276Y-12932476D02*
X18446229Y-12922952D01*
X18436705Y-12913428D01*
X18427181Y-12894381D01*
X18427181Y-12837238D01*
X18436705Y-12818190D01*
X18446229Y-12808667D01*
X18465276Y-12799143D01*
X18493848Y-12799143D01*
X18512895Y-12808667D01*
X18522419Y-12818190D01*
X18531943Y-12837238D01*
X18531943Y-12894381D01*
X18522419Y-12913428D01*
X18512895Y-12922952D01*
X18493848Y-12932476D01*
X18465276Y-12932476D01*
X18646229Y-12932476D02*
X18627181Y-12922952D01*
X18617657Y-12903905D01*
X18617657Y-12732476D01*
X18798610Y-12922952D02*
X18779562Y-12932476D01*
X18741467Y-12932476D01*
X18722419Y-12922952D01*
X18712895Y-12903905D01*
X18712895Y-12827714D01*
X18722419Y-12808667D01*
X18741467Y-12799143D01*
X18779562Y-12799143D01*
X18798610Y-12808667D01*
X18808133Y-12827714D01*
X18808133Y-12846762D01*
X18712895Y-12865809D01*
X18884324Y-12922952D02*
X18903371Y-12932476D01*
X18941467Y-12932476D01*
X18960514Y-12922952D01*
X18970038Y-12903905D01*
X18970038Y-12894381D01*
X18960514Y-12875333D01*
X18941467Y-12865809D01*
X18912895Y-12865809D01*
X18893848Y-12856286D01*
X18884324Y-12837238D01*
X18884324Y-12827714D01*
X18893848Y-12808667D01*
X18912895Y-12799143D01*
X18941467Y-12799143D01*
X18960514Y-12808667D01*
X19036705Y-13008667D02*
X19046229Y-12999143D01*
X19065276Y-12970571D01*
X19074800Y-12951524D01*
X19084324Y-12922952D01*
X19093848Y-12875333D01*
X19093848Y-12837238D01*
X19084324Y-12789619D01*
X19074800Y-12761048D01*
X19065276Y-12742000D01*
X19046229Y-12713428D01*
X19036705Y-12703905D01*
D12*
X14264800Y-13106000D02*
G75*
G03*
X14264800Y-13106000I-20000J0D01*
G01*
D10*
X14560514Y-12996476D02*
X14579562Y-12996476D01*
X14598609Y-13006000D01*
X14608133Y-13015524D01*
X14617657Y-13034571D01*
X14627181Y-13072667D01*
X14627181Y-13120286D01*
X14617657Y-13158381D01*
X14608133Y-13177428D01*
X14598609Y-13186952D01*
X14579562Y-13196476D01*
X14560514Y-13196476D01*
X14541467Y-13186952D01*
X14531943Y-13177428D01*
X14522419Y-13158381D01*
X14512895Y-13120286D01*
X14512895Y-13072667D01*
X14522419Y-13034571D01*
X14531943Y-13015524D01*
X14541467Y-13006000D01*
X14560514Y-12996476D01*
X14712895Y-13177428D02*
X14722419Y-13186952D01*
X14712895Y-13196476D01*
X14703371Y-13186952D01*
X14712895Y-13177428D01*
X14712895Y-13196476D01*
X14893848Y-13063143D02*
X14893848Y-13196476D01*
X14846228Y-12986952D02*
X14798609Y-13129809D01*
X14922419Y-13129809D01*
X15036705Y-12996476D02*
X15055752Y-12996476D01*
X15074800Y-13006000D01*
X15084324Y-13015524D01*
X15093848Y-13034571D01*
X15103371Y-13072667D01*
X15103371Y-13120286D01*
X15093848Y-13158381D01*
X15084324Y-13177428D01*
X15074800Y-13186952D01*
X15055752Y-13196476D01*
X15036705Y-13196476D01*
X15017657Y-13186952D01*
X15008133Y-13177428D01*
X14998609Y-13158381D01*
X14989086Y-13120286D01*
X14989086Y-13072667D01*
X14998609Y-13034571D01*
X15008133Y-13015524D01*
X15017657Y-13006000D01*
X15036705Y-12996476D01*
X15227181Y-12996476D02*
X15246228Y-12996476D01*
X15265276Y-13006000D01*
X15274800Y-13015524D01*
X15284324Y-13034571D01*
X15293848Y-13072667D01*
X15293848Y-13120286D01*
X15284324Y-13158381D01*
X15274800Y-13177428D01*
X15265276Y-13186952D01*
X15246228Y-13196476D01*
X15227181Y-13196476D01*
X15208133Y-13186952D01*
X15198609Y-13177428D01*
X15189086Y-13158381D01*
X15179562Y-13120286D01*
X15179562Y-13072667D01*
X15189086Y-13034571D01*
X15198609Y-13015524D01*
X15208133Y-13006000D01*
X15227181Y-12996476D01*
X15379562Y-13196476D02*
X15379562Y-13063143D01*
X15379562Y-13082190D02*
X15389086Y-13072667D01*
X15408133Y-13063143D01*
X15436705Y-13063143D01*
X15455752Y-13072667D01*
X15465276Y-13091714D01*
X15465276Y-13196476D01*
X15465276Y-13091714D02*
X15474800Y-13072667D01*
X15493848Y-13063143D01*
X15522419Y-13063143D01*
X15541467Y-13072667D01*
X15550990Y-13091714D01*
X15550990Y-13196476D01*
X15646228Y-13196476D02*
X15646228Y-13063143D01*
X15646228Y-13082190D02*
X15655752Y-13072667D01*
X15674800Y-13063143D01*
X15703371Y-13063143D01*
X15722419Y-13072667D01*
X15731943Y-13091714D01*
X15731943Y-13196476D01*
X15731943Y-13091714D02*
X15741467Y-13072667D01*
X15760514Y-13063143D01*
X15789086Y-13063143D01*
X15808133Y-13072667D01*
X15817657Y-13091714D01*
X15817657Y-13196476D01*
X16208133Y-12986952D02*
X16036705Y-13244095D01*
X16465276Y-12996476D02*
X16484324Y-12996476D01*
X16503371Y-13006000D01*
X16512895Y-13015524D01*
X16522419Y-13034571D01*
X16531943Y-13072667D01*
X16531943Y-13120286D01*
X16522419Y-13158381D01*
X16512895Y-13177428D01*
X16503371Y-13186952D01*
X16484324Y-13196476D01*
X16465276Y-13196476D01*
X16446228Y-13186952D01*
X16436705Y-13177428D01*
X16427181Y-13158381D01*
X16417657Y-13120286D01*
X16417657Y-13072667D01*
X16427181Y-13034571D01*
X16436705Y-13015524D01*
X16446228Y-13006000D01*
X16465276Y-12996476D01*
X16617657Y-13177428D02*
X16627181Y-13186952D01*
X16617657Y-13196476D01*
X16608133Y-13186952D01*
X16617657Y-13177428D01*
X16617657Y-13196476D01*
X16750990Y-12996476D02*
X16770038Y-12996476D01*
X16789086Y-13006000D01*
X16798610Y-13015524D01*
X16808133Y-13034571D01*
X16817657Y-13072667D01*
X16817657Y-13120286D01*
X16808133Y-13158381D01*
X16798610Y-13177428D01*
X16789086Y-13186952D01*
X16770038Y-13196476D01*
X16750990Y-13196476D01*
X16731943Y-13186952D01*
X16722419Y-13177428D01*
X16712895Y-13158381D01*
X16703371Y-13120286D01*
X16703371Y-13072667D01*
X16712895Y-13034571D01*
X16722419Y-13015524D01*
X16731943Y-13006000D01*
X16750990Y-12996476D01*
X17008133Y-13196476D02*
X16893848Y-13196476D01*
X16950990Y-13196476D02*
X16950990Y-12996476D01*
X16931943Y-13025048D01*
X16912895Y-13044095D01*
X16893848Y-13053619D01*
X17189086Y-12996476D02*
X17093848Y-12996476D01*
X17084324Y-13091714D01*
X17093848Y-13082190D01*
X17112895Y-13072667D01*
X17160514Y-13072667D01*
X17179562Y-13082190D01*
X17189086Y-13091714D01*
X17198610Y-13110762D01*
X17198610Y-13158381D01*
X17189086Y-13177428D01*
X17179562Y-13186952D01*
X17160514Y-13196476D01*
X17112895Y-13196476D01*
X17093848Y-13186952D01*
X17084324Y-13177428D01*
X17265276Y-12996476D02*
X17398610Y-12996476D01*
X17312895Y-13196476D01*
X17465276Y-12996476D02*
X17465276Y-13034571D01*
X17541467Y-12996476D02*
X17541467Y-13034571D01*
X17836705Y-13272667D02*
X17827181Y-13263143D01*
X17808133Y-13234571D01*
X17798610Y-13215524D01*
X17789086Y-13186952D01*
X17779562Y-13139333D01*
X17779562Y-13101238D01*
X17789086Y-13053619D01*
X17798610Y-13025048D01*
X17808133Y-13006000D01*
X17827181Y-12977428D01*
X17836705Y-12967905D01*
X17998610Y-13063143D02*
X17998610Y-13196476D01*
X17950990Y-12986952D02*
X17903371Y-13129809D01*
X18027181Y-13129809D01*
X18255752Y-13196476D02*
X18255752Y-12996476D01*
X18341467Y-13196476D02*
X18341467Y-13091714D01*
X18331943Y-13072667D01*
X18312895Y-13063143D01*
X18284324Y-13063143D01*
X18265276Y-13072667D01*
X18255752Y-13082190D01*
X18465276Y-13196476D02*
X18446229Y-13186952D01*
X18436705Y-13177428D01*
X18427181Y-13158381D01*
X18427181Y-13101238D01*
X18436705Y-13082190D01*
X18446229Y-13072667D01*
X18465276Y-13063143D01*
X18493848Y-13063143D01*
X18512895Y-13072667D01*
X18522419Y-13082190D01*
X18531943Y-13101238D01*
X18531943Y-13158381D01*
X18522419Y-13177428D01*
X18512895Y-13186952D01*
X18493848Y-13196476D01*
X18465276Y-13196476D01*
X18646229Y-13196476D02*
X18627181Y-13186952D01*
X18617657Y-13167905D01*
X18617657Y-12996476D01*
X18798610Y-13186952D02*
X18779562Y-13196476D01*
X18741467Y-13196476D01*
X18722419Y-13186952D01*
X18712895Y-13167905D01*
X18712895Y-13091714D01*
X18722419Y-13072667D01*
X18741467Y-13063143D01*
X18779562Y-13063143D01*
X18798610Y-13072667D01*
X18808133Y-13091714D01*
X18808133Y-13110762D01*
X18712895Y-13129809D01*
X18884324Y-13186952D02*
X18903371Y-13196476D01*
X18941467Y-13196476D01*
X18960514Y-13186952D01*
X18970038Y-13167905D01*
X18970038Y-13158381D01*
X18960514Y-13139333D01*
X18941467Y-13129809D01*
X18912895Y-13129809D01*
X18893848Y-13120286D01*
X18884324Y-13101238D01*
X18884324Y-13091714D01*
X18893848Y-13072667D01*
X18912895Y-13063143D01*
X18941467Y-13063143D01*
X18960514Y-13072667D01*
X19036705Y-13272667D02*
X19046229Y-13263143D01*
X19065276Y-13234571D01*
X19074800Y-13215524D01*
X19084324Y-13186952D01*
X19093848Y-13139333D01*
X19093848Y-13101238D01*
X19084324Y-13053619D01*
X19074800Y-13025048D01*
X19065276Y-13006000D01*
X19046229Y-12977428D01*
X19036705Y-12967905D01*
D13*
X14214800Y-13320000D02*
X14214800Y-13420000D01*
X14164800Y-13370000D02*
X14264800Y-13370000D01*
D10*
X14627181Y-13460476D02*
X14512895Y-13460476D01*
X14570038Y-13460476D02*
X14570038Y-13260476D01*
X14550990Y-13289048D01*
X14531943Y-13308095D01*
X14512895Y-13317619D01*
X14712895Y-13441428D02*
X14722419Y-13450952D01*
X14712895Y-13460476D01*
X14703371Y-13450952D01*
X14712895Y-13441428D01*
X14712895Y-13460476D01*
X14846228Y-13260476D02*
X14865276Y-13260476D01*
X14884324Y-13270000D01*
X14893848Y-13279524D01*
X14903371Y-13298571D01*
X14912895Y-13336667D01*
X14912895Y-13384286D01*
X14903371Y-13422381D01*
X14893848Y-13441428D01*
X14884324Y-13450952D01*
X14865276Y-13460476D01*
X14846228Y-13460476D01*
X14827181Y-13450952D01*
X14817657Y-13441428D01*
X14808133Y-13422381D01*
X14798609Y-13384286D01*
X14798609Y-13336667D01*
X14808133Y-13298571D01*
X14817657Y-13279524D01*
X14827181Y-13270000D01*
X14846228Y-13260476D01*
X15036705Y-13260476D02*
X15055752Y-13260476D01*
X15074800Y-13270000D01*
X15084324Y-13279524D01*
X15093848Y-13298571D01*
X15103371Y-13336667D01*
X15103371Y-13384286D01*
X15093848Y-13422381D01*
X15084324Y-13441428D01*
X15074800Y-13450952D01*
X15055752Y-13460476D01*
X15036705Y-13460476D01*
X15017657Y-13450952D01*
X15008133Y-13441428D01*
X14998609Y-13422381D01*
X14989086Y-13384286D01*
X14989086Y-13336667D01*
X14998609Y-13298571D01*
X15008133Y-13279524D01*
X15017657Y-13270000D01*
X15036705Y-13260476D01*
X15227181Y-13260476D02*
X15246228Y-13260476D01*
X15265276Y-13270000D01*
X15274800Y-13279524D01*
X15284324Y-13298571D01*
X15293848Y-13336667D01*
X15293848Y-13384286D01*
X15284324Y-13422381D01*
X15274800Y-13441428D01*
X15265276Y-13450952D01*
X15246228Y-13460476D01*
X15227181Y-13460476D01*
X15208133Y-13450952D01*
X15198609Y-13441428D01*
X15189086Y-13422381D01*
X15179562Y-13384286D01*
X15179562Y-13336667D01*
X15189086Y-13298571D01*
X15198609Y-13279524D01*
X15208133Y-13270000D01*
X15227181Y-13260476D01*
X15379562Y-13460476D02*
X15379562Y-13327143D01*
X15379562Y-13346190D02*
X15389086Y-13336667D01*
X15408133Y-13327143D01*
X15436705Y-13327143D01*
X15455752Y-13336667D01*
X15465276Y-13355714D01*
X15465276Y-13460476D01*
X15465276Y-13355714D02*
X15474800Y-13336667D01*
X15493848Y-13327143D01*
X15522419Y-13327143D01*
X15541467Y-13336667D01*
X15550990Y-13355714D01*
X15550990Y-13460476D01*
X15646228Y-13460476D02*
X15646228Y-13327143D01*
X15646228Y-13346190D02*
X15655752Y-13336667D01*
X15674800Y-13327143D01*
X15703371Y-13327143D01*
X15722419Y-13336667D01*
X15731943Y-13355714D01*
X15731943Y-13460476D01*
X15731943Y-13355714D02*
X15741467Y-13336667D01*
X15760514Y-13327143D01*
X15789086Y-13327143D01*
X15808133Y-13336667D01*
X15817657Y-13355714D01*
X15817657Y-13460476D01*
X16208133Y-13250952D02*
X16036705Y-13508095D01*
X16465276Y-13260476D02*
X16484324Y-13260476D01*
X16503371Y-13270000D01*
X16512895Y-13279524D01*
X16522419Y-13298571D01*
X16531943Y-13336667D01*
X16531943Y-13384286D01*
X16522419Y-13422381D01*
X16512895Y-13441428D01*
X16503371Y-13450952D01*
X16484324Y-13460476D01*
X16465276Y-13460476D01*
X16446228Y-13450952D01*
X16436705Y-13441428D01*
X16427181Y-13422381D01*
X16417657Y-13384286D01*
X16417657Y-13336667D01*
X16427181Y-13298571D01*
X16436705Y-13279524D01*
X16446228Y-13270000D01*
X16465276Y-13260476D01*
X16617657Y-13441428D02*
X16627181Y-13450952D01*
X16617657Y-13460476D01*
X16608133Y-13450952D01*
X16617657Y-13441428D01*
X16617657Y-13460476D01*
X16750990Y-13260476D02*
X16770038Y-13260476D01*
X16789086Y-13270000D01*
X16798610Y-13279524D01*
X16808133Y-13298571D01*
X16817657Y-13336667D01*
X16817657Y-13384286D01*
X16808133Y-13422381D01*
X16798610Y-13441428D01*
X16789086Y-13450952D01*
X16770038Y-13460476D01*
X16750990Y-13460476D01*
X16731943Y-13450952D01*
X16722419Y-13441428D01*
X16712895Y-13422381D01*
X16703371Y-13384286D01*
X16703371Y-13336667D01*
X16712895Y-13298571D01*
X16722419Y-13279524D01*
X16731943Y-13270000D01*
X16750990Y-13260476D01*
X16884324Y-13260476D02*
X17008133Y-13260476D01*
X16941467Y-13336667D01*
X16970038Y-13336667D01*
X16989086Y-13346190D01*
X16998610Y-13355714D01*
X17008133Y-13374762D01*
X17008133Y-13422381D01*
X16998610Y-13441428D01*
X16989086Y-13450952D01*
X16970038Y-13460476D01*
X16912895Y-13460476D01*
X16893848Y-13450952D01*
X16884324Y-13441428D01*
X17103371Y-13460476D02*
X17141467Y-13460476D01*
X17160514Y-13450952D01*
X17170038Y-13441428D01*
X17189086Y-13412857D01*
X17198610Y-13374762D01*
X17198610Y-13298571D01*
X17189086Y-13279524D01*
X17179562Y-13270000D01*
X17160514Y-13260476D01*
X17122419Y-13260476D01*
X17103371Y-13270000D01*
X17093848Y-13279524D01*
X17084324Y-13298571D01*
X17084324Y-13346190D01*
X17093848Y-13365238D01*
X17103371Y-13374762D01*
X17122419Y-13384286D01*
X17160514Y-13384286D01*
X17179562Y-13374762D01*
X17189086Y-13365238D01*
X17198610Y-13346190D01*
X17370038Y-13327143D02*
X17370038Y-13460476D01*
X17322419Y-13250952D02*
X17274800Y-13393809D01*
X17398610Y-13393809D01*
X17465276Y-13260476D02*
X17465276Y-13298571D01*
X17541467Y-13260476D02*
X17541467Y-13298571D01*
X17836705Y-13536667D02*
X17827181Y-13527143D01*
X17808133Y-13498571D01*
X17798610Y-13479524D01*
X17789086Y-13450952D01*
X17779562Y-13403333D01*
X17779562Y-13365238D01*
X17789086Y-13317619D01*
X17798610Y-13289048D01*
X17808133Y-13270000D01*
X17827181Y-13241428D01*
X17836705Y-13231905D01*
X18017657Y-13460476D02*
X17903371Y-13460476D01*
X17960514Y-13460476D02*
X17960514Y-13260476D01*
X17941467Y-13289048D01*
X17922419Y-13308095D01*
X17903371Y-13317619D01*
X18141467Y-13260476D02*
X18160514Y-13260476D01*
X18179562Y-13270000D01*
X18189086Y-13279524D01*
X18198610Y-13298571D01*
X18208133Y-13336667D01*
X18208133Y-13384286D01*
X18198610Y-13422381D01*
X18189086Y-13441428D01*
X18179562Y-13450952D01*
X18160514Y-13460476D01*
X18141467Y-13460476D01*
X18122419Y-13450952D01*
X18112895Y-13441428D01*
X18103371Y-13422381D01*
X18093848Y-13384286D01*
X18093848Y-13336667D01*
X18103371Y-13298571D01*
X18112895Y-13279524D01*
X18122419Y-13270000D01*
X18141467Y-13260476D01*
X18446229Y-13460476D02*
X18446229Y-13260476D01*
X18531943Y-13460476D02*
X18531943Y-13355714D01*
X18522419Y-13336667D01*
X18503371Y-13327143D01*
X18474800Y-13327143D01*
X18455752Y-13336667D01*
X18446229Y-13346190D01*
X18655752Y-13460476D02*
X18636705Y-13450952D01*
X18627181Y-13441428D01*
X18617657Y-13422381D01*
X18617657Y-13365238D01*
X18627181Y-13346190D01*
X18636705Y-13336667D01*
X18655752Y-13327143D01*
X18684324Y-13327143D01*
X18703371Y-13336667D01*
X18712895Y-13346190D01*
X18722419Y-13365238D01*
X18722419Y-13422381D01*
X18712895Y-13441428D01*
X18703371Y-13450952D01*
X18684324Y-13460476D01*
X18655752Y-13460476D01*
X18836705Y-13460476D02*
X18817657Y-13450952D01*
X18808133Y-13431905D01*
X18808133Y-13260476D01*
X18989086Y-13450952D02*
X18970038Y-13460476D01*
X18931943Y-13460476D01*
X18912895Y-13450952D01*
X18903371Y-13431905D01*
X18903371Y-13355714D01*
X18912895Y-13336667D01*
X18931943Y-13327143D01*
X18970038Y-13327143D01*
X18989086Y-13336667D01*
X18998610Y-13355714D01*
X18998610Y-13374762D01*
X18903371Y-13393809D01*
X19074800Y-13450952D02*
X19093848Y-13460476D01*
X19131943Y-13460476D01*
X19150990Y-13450952D01*
X19160514Y-13431905D01*
X19160514Y-13422381D01*
X19150990Y-13403333D01*
X19131943Y-13393809D01*
X19103371Y-13393809D01*
X19084324Y-13384286D01*
X19074800Y-13365238D01*
X19074800Y-13355714D01*
X19084324Y-13336667D01*
X19103371Y-13327143D01*
X19131943Y-13327143D01*
X19150990Y-13336667D01*
X19227181Y-13536667D02*
X19236705Y-13527143D01*
X19255752Y-13498571D01*
X19265276Y-13479524D01*
X19274800Y-13450952D01*
X19284324Y-13403333D01*
X19284324Y-13365238D01*
X19274800Y-13317619D01*
X19265276Y-13289048D01*
X19255752Y-13270000D01*
X19236705Y-13241428D01*
X19227181Y-13231905D01*
D14*
X14241369Y-13690569D02*
X14241369Y-13577431D01*
X14128231Y-13577431D01*
X14128231Y-13690569D01*
X14241369Y-13690569D01*
D10*
X14627181Y-13724476D02*
X14512895Y-13724476D01*
X14570038Y-13724476D02*
X14570038Y-13524476D01*
X14550990Y-13553048D01*
X14531943Y-13572095D01*
X14512895Y-13581619D01*
X14712895Y-13705428D02*
X14722419Y-13714952D01*
X14712895Y-13724476D01*
X14703371Y-13714952D01*
X14712895Y-13705428D01*
X14712895Y-13724476D01*
X14893848Y-13524476D02*
X14855752Y-13524476D01*
X14836705Y-13534000D01*
X14827181Y-13543524D01*
X14808133Y-13572095D01*
X14798609Y-13610190D01*
X14798609Y-13686381D01*
X14808133Y-13705428D01*
X14817657Y-13714952D01*
X14836705Y-13724476D01*
X14874800Y-13724476D01*
X14893848Y-13714952D01*
X14903371Y-13705428D01*
X14912895Y-13686381D01*
X14912895Y-13638762D01*
X14903371Y-13619714D01*
X14893848Y-13610190D01*
X14874800Y-13600667D01*
X14836705Y-13600667D01*
X14817657Y-13610190D01*
X14808133Y-13619714D01*
X14798609Y-13638762D01*
X15036705Y-13524476D02*
X15055752Y-13524476D01*
X15074800Y-13534000D01*
X15084324Y-13543524D01*
X15093848Y-13562571D01*
X15103371Y-13600667D01*
X15103371Y-13648286D01*
X15093848Y-13686381D01*
X15084324Y-13705428D01*
X15074800Y-13714952D01*
X15055752Y-13724476D01*
X15036705Y-13724476D01*
X15017657Y-13714952D01*
X15008133Y-13705428D01*
X14998609Y-13686381D01*
X14989086Y-13648286D01*
X14989086Y-13600667D01*
X14998609Y-13562571D01*
X15008133Y-13543524D01*
X15017657Y-13534000D01*
X15036705Y-13524476D01*
X15227181Y-13524476D02*
X15246228Y-13524476D01*
X15265276Y-13534000D01*
X15274800Y-13543524D01*
X15284324Y-13562571D01*
X15293848Y-13600667D01*
X15293848Y-13648286D01*
X15284324Y-13686381D01*
X15274800Y-13705428D01*
X15265276Y-13714952D01*
X15246228Y-13724476D01*
X15227181Y-13724476D01*
X15208133Y-13714952D01*
X15198609Y-13705428D01*
X15189086Y-13686381D01*
X15179562Y-13648286D01*
X15179562Y-13600667D01*
X15189086Y-13562571D01*
X15198609Y-13543524D01*
X15208133Y-13534000D01*
X15227181Y-13524476D01*
X15379562Y-13724476D02*
X15379562Y-13591143D01*
X15379562Y-13610190D02*
X15389086Y-13600667D01*
X15408133Y-13591143D01*
X15436705Y-13591143D01*
X15455752Y-13600667D01*
X15465276Y-13619714D01*
X15465276Y-13724476D01*
X15465276Y-13619714D02*
X15474800Y-13600667D01*
X15493848Y-13591143D01*
X15522419Y-13591143D01*
X15541467Y-13600667D01*
X15550990Y-13619714D01*
X15550990Y-13724476D01*
X15646228Y-13724476D02*
X15646228Y-13591143D01*
X15646228Y-13610190D02*
X15655752Y-13600667D01*
X15674800Y-13591143D01*
X15703371Y-13591143D01*
X15722419Y-13600667D01*
X15731943Y-13619714D01*
X15731943Y-13724476D01*
X15731943Y-13619714D02*
X15741467Y-13600667D01*
X15760514Y-13591143D01*
X15789086Y-13591143D01*
X15808133Y-13600667D01*
X15817657Y-13619714D01*
X15817657Y-13724476D01*
X16208133Y-13514952D02*
X16036705Y-13772095D01*
X16465276Y-13524476D02*
X16484324Y-13524476D01*
X16503371Y-13534000D01*
X16512895Y-13543524D01*
X16522419Y-13562571D01*
X16531943Y-13600667D01*
X16531943Y-13648286D01*
X16522419Y-13686381D01*
X16512895Y-13705428D01*
X16503371Y-13714952D01*
X16484324Y-13724476D01*
X16465276Y-13724476D01*
X16446228Y-13714952D01*
X16436705Y-13705428D01*
X16427181Y-13686381D01*
X16417657Y-13648286D01*
X16417657Y-13600667D01*
X16427181Y-13562571D01*
X16436705Y-13543524D01*
X16446228Y-13534000D01*
X16465276Y-13524476D01*
X16617657Y-13705428D02*
X16627181Y-13714952D01*
X16617657Y-13724476D01*
X16608133Y-13714952D01*
X16617657Y-13705428D01*
X16617657Y-13724476D01*
X16750990Y-13524476D02*
X16770038Y-13524476D01*
X16789086Y-13534000D01*
X16798610Y-13543524D01*
X16808133Y-13562571D01*
X16817657Y-13600667D01*
X16817657Y-13648286D01*
X16808133Y-13686381D01*
X16798610Y-13705428D01*
X16789086Y-13714952D01*
X16770038Y-13724476D01*
X16750990Y-13724476D01*
X16731943Y-13714952D01*
X16722419Y-13705428D01*
X16712895Y-13686381D01*
X16703371Y-13648286D01*
X16703371Y-13600667D01*
X16712895Y-13562571D01*
X16722419Y-13543524D01*
X16731943Y-13534000D01*
X16750990Y-13524476D01*
X16989086Y-13524476D02*
X16950990Y-13524476D01*
X16931943Y-13534000D01*
X16922419Y-13543524D01*
X16903371Y-13572095D01*
X16893848Y-13610190D01*
X16893848Y-13686381D01*
X16903371Y-13705428D01*
X16912895Y-13714952D01*
X16931943Y-13724476D01*
X16970038Y-13724476D01*
X16989086Y-13714952D01*
X16998610Y-13705428D01*
X17008133Y-13686381D01*
X17008133Y-13638762D01*
X16998610Y-13619714D01*
X16989086Y-13610190D01*
X16970038Y-13600667D01*
X16931943Y-13600667D01*
X16912895Y-13610190D01*
X16903371Y-13619714D01*
X16893848Y-13638762D01*
X17074800Y-13524476D02*
X17198610Y-13524476D01*
X17131943Y-13600667D01*
X17160514Y-13600667D01*
X17179562Y-13610190D01*
X17189086Y-13619714D01*
X17198610Y-13638762D01*
X17198610Y-13686381D01*
X17189086Y-13705428D01*
X17179562Y-13714952D01*
X17160514Y-13724476D01*
X17103371Y-13724476D01*
X17084324Y-13714952D01*
X17074800Y-13705428D01*
X17322419Y-13524476D02*
X17341467Y-13524476D01*
X17360514Y-13534000D01*
X17370038Y-13543524D01*
X17379562Y-13562571D01*
X17389086Y-13600667D01*
X17389086Y-13648286D01*
X17379562Y-13686381D01*
X17370038Y-13705428D01*
X17360514Y-13714952D01*
X17341467Y-13724476D01*
X17322419Y-13724476D01*
X17303371Y-13714952D01*
X17293848Y-13705428D01*
X17284324Y-13686381D01*
X17274800Y-13648286D01*
X17274800Y-13600667D01*
X17284324Y-13562571D01*
X17293848Y-13543524D01*
X17303371Y-13534000D01*
X17322419Y-13524476D01*
X17465276Y-13524476D02*
X17465276Y-13562571D01*
X17541467Y-13524476D02*
X17541467Y-13562571D01*
X17836705Y-13800667D02*
X17827181Y-13791143D01*
X17808133Y-13762571D01*
X17798610Y-13743524D01*
X17789086Y-13714952D01*
X17779562Y-13667333D01*
X17779562Y-13629238D01*
X17789086Y-13581619D01*
X17798610Y-13553048D01*
X17808133Y-13534000D01*
X17827181Y-13505428D01*
X17836705Y-13495905D01*
X18008133Y-13524476D02*
X17912895Y-13524476D01*
X17903371Y-13619714D01*
X17912895Y-13610190D01*
X17931943Y-13600667D01*
X17979562Y-13600667D01*
X17998610Y-13610190D01*
X18008133Y-13619714D01*
X18017657Y-13638762D01*
X18017657Y-13686381D01*
X18008133Y-13705428D01*
X17998610Y-13714952D01*
X17979562Y-13724476D01*
X17931943Y-13724476D01*
X17912895Y-13714952D01*
X17903371Y-13705428D01*
X18255752Y-13724476D02*
X18255752Y-13524476D01*
X18341467Y-13724476D02*
X18341467Y-13619714D01*
X18331943Y-13600667D01*
X18312895Y-13591143D01*
X18284324Y-13591143D01*
X18265276Y-13600667D01*
X18255752Y-13610190D01*
X18465276Y-13724476D02*
X18446229Y-13714952D01*
X18436705Y-13705428D01*
X18427181Y-13686381D01*
X18427181Y-13629238D01*
X18436705Y-13610190D01*
X18446229Y-13600667D01*
X18465276Y-13591143D01*
X18493848Y-13591143D01*
X18512895Y-13600667D01*
X18522419Y-13610190D01*
X18531943Y-13629238D01*
X18531943Y-13686381D01*
X18522419Y-13705428D01*
X18512895Y-13714952D01*
X18493848Y-13724476D01*
X18465276Y-13724476D01*
X18646229Y-13724476D02*
X18627181Y-13714952D01*
X18617657Y-13695905D01*
X18617657Y-13524476D01*
X18798610Y-13714952D02*
X18779562Y-13724476D01*
X18741467Y-13724476D01*
X18722419Y-13714952D01*
X18712895Y-13695905D01*
X18712895Y-13619714D01*
X18722419Y-13600667D01*
X18741467Y-13591143D01*
X18779562Y-13591143D01*
X18798610Y-13600667D01*
X18808133Y-13619714D01*
X18808133Y-13638762D01*
X18712895Y-13657809D01*
X18884324Y-13714952D02*
X18903371Y-13724476D01*
X18941467Y-13724476D01*
X18960514Y-13714952D01*
X18970038Y-13695905D01*
X18970038Y-13686381D01*
X18960514Y-13667333D01*
X18941467Y-13657809D01*
X18912895Y-13657809D01*
X18893848Y-13648286D01*
X18884324Y-13629238D01*
X18884324Y-13619714D01*
X18893848Y-13600667D01*
X18912895Y-13591143D01*
X18941467Y-13591143D01*
X18960514Y-13600667D01*
X19036705Y-13800667D02*
X19046229Y-13791143D01*
X19065276Y-13762571D01*
X19074800Y-13743524D01*
X19084324Y-13714952D01*
X19093848Y-13667333D01*
X19093848Y-13629238D01*
X19084324Y-13581619D01*
X19074800Y-13553048D01*
X19065276Y-13534000D01*
X19046229Y-13505428D01*
X19036705Y-13495905D01*
M02*
