%TF.GenerationSoftware,KiCad,Pcbnew,(6.0.10-0)*%
%TF.CreationDate,2023-02-01T12:14:51-08:00*%
%TF.ProjectId,DRF1268T,44524631-3236-4385-942e-6b696361645f,rev?*%
%TF.SameCoordinates,Original*%
%TF.FileFunction,Copper,L1,Top*%
%TF.FilePolarity,Positive*%
%FSLAX46Y46*%
G04 Gerber Fmt 4.6, Leading zero omitted, Abs format (unit mm)*
G04 Created by KiCad (PCBNEW (6.0.10-0)) date 2023-02-01 12:14:51*
%MOMM*%
%LPD*%
G01*
G04 APERTURE LIST*
G04 Aperture macros list*
%AMRoundRect*
0 Rectangle with rounded corners*
0 $1 Rounding radius*
0 $2 $3 $4 $5 $6 $7 $8 $9 X,Y pos of 4 corners*
0 Add a 4 corners polygon primitive as box body*
4,1,4,$2,$3,$4,$5,$6,$7,$8,$9,$2,$3,0*
0 Add four circle primitives for the rounded corners*
1,1,$1+$1,$2,$3*
1,1,$1+$1,$4,$5*
1,1,$1+$1,$6,$7*
1,1,$1+$1,$8,$9*
0 Add four rect primitives between the rounded corners*
20,1,$1+$1,$2,$3,$4,$5,0*
20,1,$1+$1,$4,$5,$6,$7,0*
20,1,$1+$1,$6,$7,$8,$9,0*
20,1,$1+$1,$8,$9,$2,$3,0*%
G04 Aperture macros list end*
%TA.AperFunction,SMDPad,CuDef*%
%ADD10RoundRect,0.100000X0.100000X-0.217500X0.100000X0.217500X-0.100000X0.217500X-0.100000X-0.217500X0*%
%TD*%
%TA.AperFunction,ComponentPad*%
%ADD11C,2.400000*%
%TD*%
%TA.AperFunction,ComponentPad*%
%ADD12R,1.700000X1.700000*%
%TD*%
%TA.AperFunction,ComponentPad*%
%ADD13O,1.700000X1.700000*%
%TD*%
%TA.AperFunction,SMDPad,CuDef*%
%ADD14RoundRect,0.350000X-0.395000X-0.350000X0.395000X-0.350000X0.395000X0.350000X-0.395000X0.350000X0*%
%TD*%
%TA.AperFunction,ViaPad*%
%ADD15C,0.800000*%
%TD*%
%TA.AperFunction,ViaPad*%
%ADD16C,0.400000*%
%TD*%
%TA.AperFunction,Conductor*%
%ADD17C,0.200000*%
%TD*%
%TA.AperFunction,Conductor*%
%ADD18C,0.250000*%
%TD*%
G04 APERTURE END LIST*
D10*
%TO.P,C2,1*%
%TO.N,+3.3V*%
X168275000Y-109804750D03*
%TO.P,C2,2*%
%TO.N,GND*%
X168275000Y-108989750D03*
%TD*%
D11*
%TO.P,J1,1*%
%TO.N,Net-(J1-Pad1)*%
X147320000Y-107318000D03*
%TO.P,J1,2*%
%TO.N,GND*%
X149860000Y-104778000D03*
%TO.P,J1,3*%
X144780000Y-104778000D03*
%TO.P,J1,4*%
X144780000Y-109858000D03*
%TO.P,J1,5*%
X149860000Y-109858000D03*
%TD*%
D12*
%TO.P,J2,1,Pin_1*%
%TO.N,+3.3V*%
X167864000Y-98323000D03*
D13*
%TO.P,J2,2,Pin_2*%
%TO.N,GND*%
X165324000Y-98323000D03*
%TO.P,J2,3,Pin_3*%
%TO.N,Net-(R1-Pad16)*%
X162784000Y-98323000D03*
%TO.P,J2,4,Pin_4*%
%TO.N,Net-(R1-Pad15)*%
X160244000Y-98323000D03*
%TO.P,J2,5,Pin_5*%
%TO.N,Net-(R1-Pad14)*%
X157704000Y-98323000D03*
%TO.P,J2,6,Pin_6*%
%TO.N,Net-(R1-Pad13)*%
X155164000Y-98323000D03*
%TO.P,J2,7,Pin_7*%
%TO.N,Net-(R1-Pad12)*%
X152624000Y-98323000D03*
%TO.P,J2,8,Pin_8*%
%TO.N,Net-(R1-Pad11)*%
X150084000Y-98323000D03*
%TO.P,J2,9,Pin_9*%
%TO.N,Net-(R1-Pad10)*%
X147544000Y-98323000D03*
%TO.P,J2,10,Pin_10*%
%TO.N,Net-(R1-Pad9)*%
X145004000Y-98323000D03*
%TD*%
D10*
%TO.P,C1,1*%
%TO.N,+3.3V*%
X168148000Y-118644500D03*
%TO.P,C1,2*%
%TO.N,GND*%
X168148000Y-117829500D03*
%TD*%
D14*
%TO.P,R1,1,ANT*%
%TO.N,Net-(J1-Pad1)*%
X153098000Y-107318000D03*
%TO.P,R1,2,GND*%
%TO.N,GND*%
X153098000Y-109118000D03*
%TO.P,R1,3,SW*%
%TO.N,+3.3V*%
X153098000Y-110918000D03*
%TO.P,R1,4,GND*%
%TO.N,GND*%
X153098000Y-112718000D03*
%TO.P,R1,5,GND*%
X153098000Y-114518000D03*
%TO.P,R1,6,NC*%
%TO.N,unconnected-(R1-Pad6)*%
X153098000Y-116318000D03*
%TO.P,R1,7,GND*%
%TO.N,GND*%
X153098000Y-118118000D03*
%TO.P,R1,8,VDD*%
%TO.N,+3.3V*%
X153098000Y-119918000D03*
%TO.P,R1,9,DIO2*%
%TO.N,Net-(R1-Pad9)*%
X165608000Y-119918000D03*
%TO.P,R1,10,DIO1*%
%TO.N,Net-(R1-Pad10)*%
X165608000Y-118118000D03*
%TO.P,R1,11,BUSY*%
%TO.N,Net-(R1-Pad11)*%
X165608000Y-116318000D03*
%TO.P,R1,12,RST*%
%TO.N,Net-(R1-Pad12)*%
X165608000Y-114518000D03*
%TO.P,R1,13,MISO*%
%TO.N,Net-(R1-Pad13)*%
X165608000Y-112718000D03*
%TO.P,R1,14,MOSI*%
%TO.N,Net-(R1-Pad14)*%
X165608000Y-110918000D03*
%TO.P,R1,15,SCK*%
%TO.N,Net-(R1-Pad15)*%
X165608000Y-109118000D03*
%TO.P,R1,16,NSS*%
%TO.N,Net-(R1-Pad16)*%
X165608000Y-107318000D03*
%TD*%
D15*
%TO.N,+3.3V*%
X168148000Y-119888000D03*
X154686000Y-119918000D03*
X154606000Y-110918000D03*
X168275000Y-110918000D03*
D16*
%TO.N,GND*%
X145542000Y-106553000D03*
X148082000Y-105664000D03*
X148082000Y-109093000D03*
X146558000Y-105664000D03*
X146558000Y-109093000D03*
X145542000Y-108077000D03*
%TD*%
D17*
%TO.N,+3.3V*%
X168275000Y-109804750D02*
X168275000Y-110921250D01*
X153098000Y-110918000D02*
X154606000Y-110918000D01*
X168148000Y-118644500D02*
X168148000Y-119761000D01*
X153098000Y-119918000D02*
X154686000Y-119918000D01*
%TO.N,Net-(J1-Pad1)*%
X153098000Y-107318000D02*
X147320000Y-107318000D01*
D18*
%TO.N,Net-(R1-Pad9)*%
X156337000Y-113411000D02*
X162844000Y-119918000D01*
X145004000Y-101697000D02*
X146304000Y-102997000D01*
X156337000Y-106939584D02*
X156337000Y-113411000D01*
X162844000Y-119918000D02*
X165608000Y-119918000D01*
X145004000Y-101697000D02*
X145004000Y-99466000D01*
X152394416Y-102997000D02*
X156337000Y-106939584D01*
X146304000Y-102997000D02*
X152394416Y-102997000D01*
%TO.N,Net-(R1-Pad10)*%
X148521000Y-102547000D02*
X152580812Y-102547000D01*
X147544000Y-101570000D02*
X147544000Y-99466000D01*
X156787000Y-113224604D02*
X161680396Y-118118000D01*
X156787000Y-106753188D02*
X156787000Y-113224604D01*
X147544000Y-101570000D02*
X148521000Y-102547000D01*
X152580812Y-102547000D02*
X156787000Y-106753188D01*
X161680396Y-118118000D02*
X165608000Y-118118000D01*
%TO.N,Net-(R1-Pad11)*%
X165608000Y-116318000D02*
X160516792Y-116318000D01*
X157295000Y-106624792D02*
X150084000Y-99413792D01*
X160516792Y-116318000D02*
X157295000Y-113096208D01*
X157295000Y-113096208D02*
X157295000Y-106624792D01*
%TO.N,Net-(R1-Pad12)*%
X165608000Y-114518000D02*
X159353188Y-114518000D01*
X159353188Y-114518000D02*
X157745000Y-112909812D01*
X152624000Y-101317396D02*
X152624000Y-99466000D01*
X157745000Y-106438396D02*
X152624000Y-101317396D01*
X157745000Y-112909812D02*
X157745000Y-106438396D01*
%TO.N,Net-(R1-Pad13)*%
X165608000Y-112718000D02*
X164661000Y-112718000D01*
X164661000Y-112718000D02*
X155164000Y-103221000D01*
X155164000Y-103221000D02*
X155164000Y-99466000D01*
%TO.N,Net-(R1-Pad14)*%
X157704000Y-105124604D02*
X157704000Y-99466000D01*
X165608000Y-110918000D02*
X163497396Y-110918000D01*
X163497396Y-110918000D02*
X157704000Y-105124604D01*
%TO.N,Net-(R1-Pad15)*%
X165608000Y-109118000D02*
X162333792Y-109118000D01*
X160244000Y-107028208D02*
X160244000Y-99466000D01*
X162333792Y-109118000D02*
X160244000Y-107028208D01*
%TO.N,Net-(R1-Pad16)*%
X162784000Y-104494000D02*
X165608000Y-107318000D01*
X162784000Y-104494000D02*
X162784000Y-99466000D01*
%TD*%
%TA.AperFunction,Conductor*%
%TO.N,GND*%
G36*
X144645750Y-96794502D02*
G01*
X144692243Y-96848158D01*
X144702347Y-96918432D01*
X144672853Y-96983012D01*
X144616774Y-97020265D01*
X144475756Y-97066357D01*
X144277607Y-97169507D01*
X144273474Y-97172610D01*
X144273471Y-97172612D01*
X144190771Y-97234705D01*
X144098965Y-97303635D01*
X143944629Y-97465138D01*
X143818743Y-97649680D01*
X143724688Y-97852305D01*
X143664989Y-98067570D01*
X143641251Y-98289695D01*
X143654110Y-98512715D01*
X143655247Y-98517761D01*
X143655248Y-98517767D01*
X143676275Y-98611069D01*
X143703222Y-98730639D01*
X143787266Y-98937616D01*
X143838942Y-99021944D01*
X143901291Y-99123688D01*
X143903987Y-99128088D01*
X144050250Y-99296938D01*
X144222126Y-99439632D01*
X144226593Y-99442242D01*
X144308070Y-99489853D01*
X144356794Y-99541491D01*
X144370500Y-99598641D01*
X144370500Y-101618233D01*
X144369973Y-101629416D01*
X144368298Y-101636909D01*
X144368547Y-101644835D01*
X144368547Y-101644836D01*
X144370438Y-101704986D01*
X144370500Y-101708945D01*
X144370500Y-101736856D01*
X144370997Y-101740790D01*
X144370997Y-101740791D01*
X144371005Y-101740856D01*
X144371938Y-101752693D01*
X144373327Y-101796889D01*
X144378978Y-101816339D01*
X144382987Y-101835700D01*
X144385526Y-101855797D01*
X144388445Y-101863168D01*
X144388445Y-101863170D01*
X144401804Y-101896912D01*
X144405649Y-101908142D01*
X144407173Y-101913387D01*
X144417982Y-101950593D01*
X144422015Y-101957412D01*
X144422017Y-101957417D01*
X144428293Y-101968028D01*
X144436988Y-101985776D01*
X144444448Y-102004617D01*
X144449110Y-102011033D01*
X144449110Y-102011034D01*
X144470436Y-102040387D01*
X144476952Y-102050307D01*
X144499458Y-102088362D01*
X144513779Y-102102683D01*
X144526619Y-102117716D01*
X144538528Y-102134107D01*
X144555949Y-102148519D01*
X144572605Y-102162298D01*
X144581384Y-102170288D01*
X145317916Y-102906820D01*
X145351942Y-102969132D01*
X145346877Y-103039947D01*
X145304330Y-103096783D01*
X145237810Y-103121594D01*
X145190407Y-103115916D01*
X145184296Y-103113960D01*
X145175238Y-103111785D01*
X144933891Y-103072480D01*
X144924602Y-103071668D01*
X144680114Y-103068467D01*
X144670803Y-103069037D01*
X144428522Y-103102010D01*
X144419403Y-103103948D01*
X144184668Y-103172367D01*
X144175915Y-103175639D01*
X143953869Y-103278004D01*
X143945714Y-103282524D01*
X143778468Y-103392175D01*
X143769330Y-103402917D01*
X143773903Y-103412693D01*
X145050115Y-104688905D01*
X145084141Y-104751217D01*
X145079076Y-104822032D01*
X145050115Y-104867095D01*
X143778044Y-106139166D01*
X143771386Y-106151359D01*
X143780099Y-106162879D01*
X143868586Y-106227760D01*
X143876505Y-106232708D01*
X144092877Y-106346547D01*
X144101451Y-106350275D01*
X144332282Y-106430885D01*
X144341291Y-106433299D01*
X144581518Y-106478908D01*
X144590775Y-106479962D01*
X144835107Y-106489563D01*
X144844420Y-106489237D01*
X145087478Y-106462618D01*
X145096655Y-106460917D01*
X145333107Y-106398665D01*
X145341926Y-106395628D01*
X145566584Y-106299107D01*
X145574856Y-106294800D01*
X145717034Y-106206818D01*
X145785486Y-106187980D01*
X145853256Y-106209141D01*
X145898827Y-106263582D01*
X145907731Y-106334018D01*
X145891056Y-106379326D01*
X145793447Y-106540182D01*
X145791638Y-106544496D01*
X145791637Y-106544498D01*
X145729933Y-106691647D01*
X145695246Y-106774365D01*
X145632738Y-107020490D01*
X145607296Y-107273151D01*
X145619480Y-107526798D01*
X145669021Y-107775857D01*
X145670600Y-107780255D01*
X145670602Y-107780262D01*
X145734978Y-107959564D01*
X145754831Y-108014858D01*
X145757048Y-108018984D01*
X145863983Y-108218000D01*
X145875025Y-108238551D01*
X145877821Y-108242296D01*
X145880336Y-108246243D01*
X145879277Y-108246918D01*
X145902033Y-108308144D01*
X145886862Y-108377501D01*
X145836602Y-108427646D01*
X145767211Y-108442658D01*
X145704525Y-108420517D01*
X145653148Y-108384876D01*
X145645115Y-108380144D01*
X145425810Y-108271995D01*
X145417177Y-108268507D01*
X145184288Y-108193958D01*
X145175238Y-108191785D01*
X144933891Y-108152480D01*
X144924602Y-108151668D01*
X144680114Y-108148467D01*
X144670803Y-108149037D01*
X144428522Y-108182010D01*
X144419403Y-108183948D01*
X144184668Y-108252367D01*
X144175915Y-108255639D01*
X143953869Y-108358004D01*
X143945714Y-108362524D01*
X143778468Y-108472175D01*
X143769330Y-108482917D01*
X143773903Y-108492693D01*
X146143732Y-110862522D01*
X146156112Y-110869282D01*
X146164453Y-110863038D01*
X146282700Y-110679202D01*
X146287147Y-110671011D01*
X146387572Y-110448076D01*
X146390767Y-110439298D01*
X146457135Y-110203973D01*
X146458993Y-110194844D01*
X146490044Y-109950770D01*
X146490525Y-109944483D01*
X146492706Y-109861160D01*
X146492555Y-109854851D01*
X146474321Y-109609486D01*
X146472944Y-109600280D01*
X146418979Y-109361786D01*
X146416255Y-109352875D01*
X146327633Y-109124983D01*
X146323619Y-109116567D01*
X146213906Y-108924611D01*
X146197469Y-108855543D01*
X146220982Y-108788553D01*
X146276980Y-108744910D01*
X146347684Y-108738469D01*
X146397802Y-108760474D01*
X146412094Y-108770953D01*
X146416229Y-108773129D01*
X146416233Y-108773131D01*
X146528406Y-108832148D01*
X146636827Y-108889191D01*
X146876568Y-108972912D01*
X147126050Y-109020278D01*
X147246532Y-109025011D01*
X147375125Y-109030064D01*
X147375130Y-109030064D01*
X147379793Y-109030247D01*
X147478774Y-109019407D01*
X147627569Y-109003112D01*
X147627575Y-109003111D01*
X147632222Y-109002602D01*
X147648707Y-108998262D01*
X147873273Y-108939138D01*
X147877793Y-108937948D01*
X148025748Y-108874382D01*
X148106807Y-108839557D01*
X148106810Y-108839555D01*
X148111110Y-108837708D01*
X148257401Y-108747181D01*
X148325851Y-108728344D01*
X148393621Y-108749505D01*
X148439192Y-108803946D01*
X148448095Y-108874382D01*
X148431421Y-108919692D01*
X148336319Y-109076415D01*
X148332084Y-109084726D01*
X148237529Y-109310214D01*
X148234572Y-109319052D01*
X148174384Y-109556042D01*
X148172763Y-109565232D01*
X148148267Y-109808510D01*
X148148022Y-109817835D01*
X148159754Y-110062064D01*
X148160891Y-110071324D01*
X148208593Y-110311143D01*
X148211082Y-110320118D01*
X148293708Y-110550250D01*
X148297505Y-110558778D01*
X148413234Y-110774160D01*
X148418245Y-110782027D01*
X148475173Y-110858263D01*
X148486431Y-110866712D01*
X148498850Y-110859940D01*
X149499658Y-109859132D01*
X150224408Y-109859132D01*
X150224539Y-109860965D01*
X150228790Y-109867580D01*
X151223732Y-110862522D01*
X151236112Y-110869282D01*
X151244453Y-110863038D01*
X151362700Y-110679202D01*
X151367147Y-110671011D01*
X151467572Y-110448076D01*
X151470767Y-110439298D01*
X151537135Y-110203973D01*
X151538993Y-110194844D01*
X151570044Y-109950770D01*
X151570525Y-109944483D01*
X151572706Y-109861160D01*
X151572555Y-109854851D01*
X151554321Y-109609486D01*
X151552944Y-109600280D01*
X151498979Y-109361786D01*
X151496255Y-109352875D01*
X151407633Y-109124983D01*
X151403619Y-109116567D01*
X151282284Y-108904276D01*
X151277074Y-108896553D01*
X151245787Y-108856865D01*
X151233863Y-108848395D01*
X151222328Y-108854882D01*
X150232022Y-109845188D01*
X150224408Y-109859132D01*
X149499658Y-109859132D01*
X150862488Y-108496302D01*
X150868872Y-108484612D01*
X150859460Y-108472502D01*
X150733144Y-108384873D01*
X150725116Y-108380145D01*
X150505810Y-108271995D01*
X150497177Y-108268507D01*
X150264288Y-108193958D01*
X150255238Y-108191785D01*
X150163605Y-108176862D01*
X150099585Y-108146170D01*
X150062321Y-108085739D01*
X150063645Y-108014755D01*
X150103135Y-107955754D01*
X150168254Y-107927470D01*
X150183858Y-107926500D01*
X151794729Y-107926500D01*
X151862850Y-107946502D01*
X151907589Y-107996476D01*
X151975490Y-108133262D01*
X151979763Y-108138577D01*
X151979764Y-108138578D01*
X151980462Y-108139446D01*
X151980722Y-108140076D01*
X151983442Y-108144329D01*
X151982680Y-108144817D01*
X152007559Y-108205068D01*
X151994876Y-108274922D01*
X151980464Y-108297350D01*
X151980188Y-108297694D01*
X151972881Y-108309119D01*
X151896058Y-108463877D01*
X151891374Y-108476609D01*
X151849272Y-108645472D01*
X151847548Y-108656418D01*
X151845146Y-108691643D01*
X151845000Y-108695939D01*
X151845000Y-108845885D01*
X151849475Y-108861124D01*
X151850865Y-108862329D01*
X151858548Y-108864000D01*
X154332885Y-108864000D01*
X154348124Y-108859525D01*
X154349329Y-108858135D01*
X154351000Y-108850452D01*
X154351000Y-108695939D01*
X154350854Y-108691643D01*
X154348452Y-108656418D01*
X154346728Y-108645472D01*
X154304626Y-108476609D01*
X154299942Y-108463877D01*
X154223119Y-108309119D01*
X154215812Y-108297694D01*
X154215536Y-108297350D01*
X154215433Y-108297101D01*
X154212134Y-108291942D01*
X154213059Y-108291351D01*
X154188441Y-108231727D01*
X154201125Y-108161872D01*
X154215538Y-108139446D01*
X154216236Y-108138578D01*
X154216237Y-108138577D01*
X154220510Y-108133262D01*
X154277238Y-108018984D01*
X154300414Y-107972297D01*
X154300415Y-107972293D01*
X154303447Y-107966186D01*
X154348572Y-107785199D01*
X154351500Y-107742250D01*
X154351500Y-106893750D01*
X154348572Y-106850801D01*
X154303447Y-106669814D01*
X154300415Y-106663707D01*
X154300414Y-106663703D01*
X154223543Y-106508847D01*
X154223541Y-106508844D01*
X154220510Y-106502738D01*
X154103631Y-106357369D01*
X154031167Y-106299107D01*
X153963578Y-106244764D01*
X153963577Y-106244763D01*
X153958262Y-106240490D01*
X153952156Y-106237459D01*
X153952153Y-106237457D01*
X153797297Y-106160586D01*
X153797293Y-106160585D01*
X153791186Y-106157553D01*
X153610199Y-106112428D01*
X153588941Y-106110979D01*
X153569397Y-106109646D01*
X153569386Y-106109646D01*
X153567250Y-106109500D01*
X152628750Y-106109500D01*
X152626614Y-106109646D01*
X152626603Y-106109646D01*
X152607059Y-106110979D01*
X152585801Y-106112428D01*
X152404814Y-106157553D01*
X152398707Y-106160585D01*
X152398703Y-106160586D01*
X152243847Y-106237457D01*
X152243844Y-106237459D01*
X152237738Y-106240490D01*
X152232423Y-106244763D01*
X152232422Y-106244764D01*
X152164833Y-106299107D01*
X152092369Y-106357369D01*
X151975490Y-106502738D01*
X151972459Y-106508844D01*
X151972457Y-106508847D01*
X151907589Y-106639524D01*
X151859384Y-106691647D01*
X151794729Y-106709500D01*
X150205943Y-106709500D01*
X150137822Y-106689498D01*
X150091329Y-106635842D01*
X150081225Y-106565568D01*
X150110719Y-106500988D01*
X150173863Y-106461652D01*
X150413107Y-106398665D01*
X150421926Y-106395628D01*
X150646584Y-106299107D01*
X150654856Y-106294800D01*
X150862777Y-106166135D01*
X150864620Y-106164796D01*
X150872038Y-106153541D01*
X150865974Y-106143184D01*
X149589885Y-104867095D01*
X149555859Y-104804783D01*
X149560924Y-104733968D01*
X149589885Y-104688905D01*
X149770905Y-104507885D01*
X149833217Y-104473859D01*
X149904032Y-104478924D01*
X149949095Y-104507885D01*
X151223732Y-105782522D01*
X151236112Y-105789282D01*
X151244453Y-105783038D01*
X151362700Y-105599202D01*
X151367147Y-105591011D01*
X151467572Y-105368076D01*
X151470767Y-105359298D01*
X151537135Y-105123973D01*
X151538993Y-105114844D01*
X151570044Y-104870770D01*
X151570525Y-104864483D01*
X151572706Y-104781160D01*
X151572555Y-104774851D01*
X151554321Y-104529486D01*
X151552944Y-104520280D01*
X151498979Y-104281786D01*
X151496255Y-104272875D01*
X151407633Y-104044983D01*
X151403619Y-104036567D01*
X151279966Y-103820221D01*
X151281641Y-103819264D01*
X151262582Y-103759271D01*
X151281082Y-103690727D01*
X151333702Y-103643065D01*
X151388552Y-103630500D01*
X152079822Y-103630500D01*
X152147943Y-103650502D01*
X152168917Y-103667405D01*
X155666595Y-107165084D01*
X155700621Y-107227396D01*
X155703500Y-107254179D01*
X155703500Y-110560259D01*
X155683498Y-110628380D01*
X155629842Y-110674873D01*
X155559568Y-110684977D01*
X155494988Y-110655483D01*
X155457667Y-110599195D01*
X155445016Y-110560259D01*
X155440527Y-110546444D01*
X155345040Y-110381056D01*
X155340616Y-110376142D01*
X155221675Y-110244045D01*
X155221674Y-110244044D01*
X155217253Y-110239134D01*
X155062752Y-110126882D01*
X155056724Y-110124198D01*
X155056722Y-110124197D01*
X154894319Y-110051891D01*
X154894318Y-110051891D01*
X154888288Y-110049206D01*
X154788268Y-110027946D01*
X154707944Y-110010872D01*
X154707939Y-110010872D01*
X154701487Y-110009500D01*
X154510513Y-110009500D01*
X154504061Y-110010872D01*
X154504056Y-110010872D01*
X154398316Y-110033348D01*
X154327525Y-110027946D01*
X154270892Y-109985129D01*
X154246399Y-109918491D01*
X154259260Y-109854076D01*
X154299940Y-109772127D01*
X154304626Y-109759391D01*
X154346728Y-109590528D01*
X154348452Y-109579582D01*
X154350854Y-109544357D01*
X154351000Y-109540062D01*
X154351000Y-109390115D01*
X154346525Y-109374876D01*
X154345135Y-109373671D01*
X154337452Y-109372000D01*
X151863115Y-109372000D01*
X151847876Y-109376475D01*
X151846671Y-109377865D01*
X151845000Y-109385548D01*
X151845000Y-109540062D01*
X151845146Y-109544357D01*
X151847548Y-109579582D01*
X151849272Y-109590528D01*
X151891374Y-109759391D01*
X151896058Y-109772123D01*
X151972881Y-109926881D01*
X151980188Y-109938306D01*
X151980464Y-109938650D01*
X151980567Y-109938899D01*
X151983866Y-109944058D01*
X151982941Y-109944649D01*
X152007559Y-110004273D01*
X151994875Y-110074128D01*
X151980462Y-110096554D01*
X151975490Y-110102738D01*
X151972459Y-110108844D01*
X151972457Y-110108847D01*
X151895586Y-110263703D01*
X151895585Y-110263707D01*
X151892553Y-110269814D01*
X151847428Y-110450801D01*
X151844500Y-110493750D01*
X151844500Y-111342250D01*
X151847428Y-111385199D01*
X151892553Y-111566186D01*
X151895585Y-111572293D01*
X151895586Y-111572297D01*
X151972457Y-111727153D01*
X151975490Y-111733262D01*
X151979763Y-111738577D01*
X151979764Y-111738578D01*
X151980462Y-111739446D01*
X151980722Y-111740076D01*
X151983442Y-111744329D01*
X151982680Y-111744817D01*
X152007559Y-111805068D01*
X151994876Y-111874922D01*
X151980464Y-111897350D01*
X151980188Y-111897694D01*
X151972881Y-111909119D01*
X151896058Y-112063877D01*
X151891374Y-112076609D01*
X151849272Y-112245472D01*
X151847548Y-112256418D01*
X151845146Y-112291643D01*
X151845000Y-112295939D01*
X151845000Y-112445885D01*
X151849475Y-112461124D01*
X151850865Y-112462329D01*
X151858548Y-112464000D01*
X154332885Y-112464000D01*
X154348124Y-112459525D01*
X154349329Y-112458135D01*
X154351000Y-112450452D01*
X154351000Y-112295939D01*
X154350854Y-112291643D01*
X154348452Y-112256418D01*
X154346728Y-112245472D01*
X154304626Y-112076609D01*
X154299940Y-112063873D01*
X154259260Y-111981924D01*
X154246886Y-111912014D01*
X154274274Y-111846512D01*
X154332726Y-111806215D01*
X154398316Y-111802652D01*
X154504056Y-111825128D01*
X154504061Y-111825128D01*
X154510513Y-111826500D01*
X154701487Y-111826500D01*
X154707939Y-111825128D01*
X154707944Y-111825128D01*
X154813682Y-111802652D01*
X154888288Y-111786794D01*
X154945158Y-111761474D01*
X155056722Y-111711803D01*
X155056724Y-111711802D01*
X155062752Y-111709118D01*
X155217253Y-111596866D01*
X155247922Y-111562805D01*
X155340621Y-111459852D01*
X155340622Y-111459851D01*
X155345040Y-111454944D01*
X155440527Y-111289556D01*
X155457667Y-111236805D01*
X155497741Y-111178199D01*
X155563137Y-111150562D01*
X155633094Y-111162669D01*
X155685400Y-111210675D01*
X155703500Y-111275741D01*
X155703500Y-113332233D01*
X155702973Y-113343416D01*
X155701298Y-113350909D01*
X155701547Y-113358835D01*
X155701547Y-113358836D01*
X155703438Y-113418986D01*
X155703500Y-113422945D01*
X155703500Y-113450856D01*
X155703997Y-113454790D01*
X155703997Y-113454791D01*
X155704005Y-113454856D01*
X155704938Y-113466693D01*
X155706327Y-113510889D01*
X155710973Y-113526881D01*
X155711978Y-113530339D01*
X155715987Y-113549700D01*
X155717475Y-113561474D01*
X155718526Y-113569797D01*
X155721445Y-113577168D01*
X155721445Y-113577170D01*
X155734804Y-113610912D01*
X155738649Y-113622142D01*
X155750982Y-113664593D01*
X155755015Y-113671412D01*
X155755017Y-113671417D01*
X155761293Y-113682028D01*
X155769988Y-113699776D01*
X155777448Y-113718617D01*
X155782110Y-113725033D01*
X155782110Y-113725034D01*
X155803436Y-113754387D01*
X155809952Y-113764307D01*
X155832458Y-113802362D01*
X155846779Y-113816683D01*
X155859619Y-113831716D01*
X155871528Y-113848107D01*
X155890591Y-113863877D01*
X155905605Y-113876298D01*
X155914384Y-113884288D01*
X162340343Y-120310247D01*
X162347887Y-120318537D01*
X162352000Y-120325018D01*
X162357777Y-120330443D01*
X162401667Y-120371658D01*
X162404509Y-120374413D01*
X162424231Y-120394135D01*
X162427355Y-120396558D01*
X162427359Y-120396562D01*
X162427424Y-120396612D01*
X162436445Y-120404317D01*
X162468679Y-120434586D01*
X162475627Y-120438405D01*
X162475629Y-120438407D01*
X162486432Y-120444346D01*
X162502959Y-120455202D01*
X162512698Y-120462757D01*
X162512700Y-120462758D01*
X162518960Y-120467614D01*
X162559540Y-120485174D01*
X162570188Y-120490391D01*
X162608940Y-120511695D01*
X162616616Y-120513666D01*
X162616619Y-120513667D01*
X162628562Y-120516733D01*
X162647267Y-120523137D01*
X162665855Y-120531181D01*
X162673678Y-120532420D01*
X162673688Y-120532423D01*
X162709524Y-120538099D01*
X162721144Y-120540505D01*
X162756289Y-120549528D01*
X162763970Y-120551500D01*
X162784224Y-120551500D01*
X162803934Y-120553051D01*
X162823943Y-120556220D01*
X162831835Y-120555474D01*
X162867961Y-120552059D01*
X162879819Y-120551500D01*
X164317139Y-120551500D01*
X164385260Y-120571502D01*
X164429999Y-120621476D01*
X164474838Y-120711803D01*
X164485490Y-120733262D01*
X164489763Y-120738577D01*
X164489764Y-120738578D01*
X164529634Y-120788166D01*
X164602369Y-120878631D01*
X164747738Y-120995510D01*
X164753844Y-120998541D01*
X164753847Y-120998543D01*
X164908703Y-121075414D01*
X164908707Y-121075415D01*
X164914814Y-121078447D01*
X165095801Y-121123572D01*
X165117059Y-121125021D01*
X165136603Y-121126354D01*
X165136614Y-121126354D01*
X165138750Y-121126500D01*
X166077250Y-121126500D01*
X166079386Y-121126354D01*
X166079397Y-121126354D01*
X166098941Y-121125021D01*
X166120199Y-121123572D01*
X166301186Y-121078447D01*
X166307293Y-121075415D01*
X166307297Y-121075414D01*
X166462153Y-120998543D01*
X166462156Y-120998541D01*
X166468262Y-120995510D01*
X166613631Y-120878631D01*
X166686366Y-120788166D01*
X166726236Y-120738578D01*
X166726237Y-120738577D01*
X166730510Y-120733262D01*
X166733543Y-120727153D01*
X166810414Y-120572297D01*
X166810415Y-120572293D01*
X166813447Y-120566186D01*
X166858572Y-120385199D01*
X166861500Y-120342250D01*
X166861500Y-119888000D01*
X167234496Y-119888000D01*
X167254458Y-120077928D01*
X167313473Y-120259556D01*
X167316776Y-120265278D01*
X167316777Y-120265279D01*
X167346347Y-120316495D01*
X167408960Y-120424944D01*
X167413378Y-120429851D01*
X167413379Y-120429852D01*
X167527161Y-120556220D01*
X167536747Y-120566866D01*
X167691248Y-120679118D01*
X167697276Y-120681802D01*
X167697278Y-120681803D01*
X167855135Y-120752085D01*
X167865712Y-120756794D01*
X167959113Y-120776647D01*
X168046056Y-120795128D01*
X168046061Y-120795128D01*
X168052513Y-120796500D01*
X168243487Y-120796500D01*
X168249939Y-120795128D01*
X168249944Y-120795128D01*
X168336887Y-120776647D01*
X168430288Y-120756794D01*
X168440865Y-120752085D01*
X168598722Y-120681803D01*
X168598724Y-120681802D01*
X168604752Y-120679118D01*
X168759253Y-120566866D01*
X168768839Y-120556220D01*
X168882621Y-120429852D01*
X168882622Y-120429851D01*
X168887040Y-120424944D01*
X168949653Y-120316495D01*
X168979223Y-120265279D01*
X168979224Y-120265278D01*
X168982527Y-120259556D01*
X169041542Y-120077928D01*
X169061504Y-119888000D01*
X169041542Y-119698072D01*
X168982527Y-119516444D01*
X168887040Y-119351056D01*
X168814910Y-119270947D01*
X168784194Y-119206942D01*
X168792138Y-119138421D01*
X168840838Y-119020850D01*
X168856500Y-118901885D01*
X168856499Y-118387116D01*
X168840838Y-118268150D01*
X168839852Y-118265770D01*
X168839852Y-118203410D01*
X168841429Y-118197526D01*
X168855462Y-118090934D01*
X168856000Y-118082725D01*
X168856000Y-118047615D01*
X168851525Y-118032376D01*
X168850135Y-118031171D01*
X168842452Y-118029500D01*
X168769140Y-118029500D01*
X168701019Y-118009498D01*
X168684294Y-117996019D01*
X168681987Y-117993013D01*
X168554875Y-117895476D01*
X168497979Y-117871909D01*
X168442698Y-117827361D01*
X168420277Y-117759997D01*
X168437835Y-117691206D01*
X168489797Y-117642828D01*
X168546197Y-117629500D01*
X168837884Y-117629500D01*
X168853123Y-117625025D01*
X168854328Y-117623635D01*
X168855999Y-117615952D01*
X168855999Y-117576277D01*
X168855461Y-117568065D01*
X168841428Y-117461467D01*
X168837190Y-117445652D01*
X168782247Y-117313007D01*
X168774059Y-117298824D01*
X168686656Y-117184920D01*
X168675080Y-117173344D01*
X168561176Y-117085941D01*
X168546993Y-117077753D01*
X168414351Y-117022811D01*
X168398531Y-117018572D01*
X168365960Y-117014284D01*
X168351778Y-117016495D01*
X168348000Y-117029652D01*
X168348000Y-117611386D01*
X168361394Y-117657003D01*
X168361394Y-117727999D01*
X168323010Y-117787725D01*
X168258429Y-117817218D01*
X168240499Y-117818500D01*
X168144795Y-117818501D01*
X168053378Y-117818501D01*
X167985258Y-117798499D01*
X167938765Y-117744844D01*
X167928660Y-117674570D01*
X167941242Y-117647019D01*
X167948000Y-117615952D01*
X167948000Y-117030035D01*
X167943956Y-117016264D01*
X167930417Y-117014235D01*
X167897467Y-117018572D01*
X167881652Y-117022810D01*
X167749007Y-117077753D01*
X167734824Y-117085941D01*
X167620920Y-117173344D01*
X167609344Y-117184920D01*
X167521941Y-117298824D01*
X167513753Y-117313007D01*
X167458810Y-117445650D01*
X167454572Y-117461468D01*
X167440538Y-117568066D01*
X167440000Y-117576275D01*
X167440000Y-117611385D01*
X167444475Y-117626624D01*
X167445865Y-117627829D01*
X167453548Y-117629500D01*
X167749802Y-117629500D01*
X167817923Y-117649502D01*
X167864416Y-117703158D01*
X167874520Y-117773432D01*
X167845026Y-117838012D01*
X167798020Y-117871909D01*
X167748752Y-117892316D01*
X167748750Y-117892317D01*
X167741124Y-117895476D01*
X167614013Y-117993013D01*
X167613165Y-117994118D01*
X167553642Y-118026621D01*
X167526859Y-118029500D01*
X167458116Y-118029500D01*
X167442877Y-118033975D01*
X167441672Y-118035365D01*
X167440001Y-118043048D01*
X167440001Y-118082723D01*
X167440539Y-118090935D01*
X167454571Y-118197525D01*
X167456148Y-118203409D01*
X167456148Y-118265770D01*
X167455162Y-118268150D01*
X167439500Y-118387115D01*
X167439501Y-118901884D01*
X167440039Y-118905969D01*
X167440039Y-118905973D01*
X167452980Y-119004273D01*
X167455162Y-119020850D01*
X167477230Y-119074128D01*
X167503861Y-119138421D01*
X167511450Y-119209011D01*
X167481089Y-119270948D01*
X167408960Y-119351056D01*
X167313473Y-119516444D01*
X167254458Y-119698072D01*
X167234496Y-119888000D01*
X166861500Y-119888000D01*
X166861500Y-119493750D01*
X166858572Y-119450801D01*
X166813447Y-119269814D01*
X166810415Y-119263707D01*
X166810414Y-119263703D01*
X166733543Y-119108847D01*
X166733541Y-119108844D01*
X166730510Y-119102738D01*
X166726236Y-119097422D01*
X166726233Y-119097417D01*
X166725858Y-119096951D01*
X166725718Y-119096613D01*
X166722558Y-119091671D01*
X166723444Y-119091104D01*
X166698762Y-119031329D01*
X166711446Y-118961474D01*
X166725858Y-118939049D01*
X166726233Y-118938583D01*
X166726238Y-118938576D01*
X166730510Y-118933262D01*
X166733678Y-118926881D01*
X166810414Y-118772297D01*
X166810415Y-118772293D01*
X166813447Y-118766186D01*
X166858572Y-118585199D01*
X166861500Y-118542250D01*
X166861500Y-117693750D01*
X166858572Y-117650801D01*
X166813447Y-117469814D01*
X166810415Y-117463707D01*
X166810414Y-117463703D01*
X166733543Y-117308847D01*
X166733541Y-117308844D01*
X166730510Y-117302738D01*
X166726238Y-117297424D01*
X166726233Y-117297417D01*
X166725858Y-117296951D01*
X166725718Y-117296613D01*
X166722558Y-117291671D01*
X166723444Y-117291104D01*
X166698762Y-117231329D01*
X166711446Y-117161474D01*
X166725858Y-117139049D01*
X166726233Y-117138583D01*
X166726238Y-117138576D01*
X166730510Y-117133262D01*
X166733543Y-117127153D01*
X166810414Y-116972297D01*
X166810415Y-116972293D01*
X166813447Y-116966186D01*
X166858572Y-116785199D01*
X166861500Y-116742250D01*
X166861500Y-115893750D01*
X166858572Y-115850801D01*
X166813447Y-115669814D01*
X166810415Y-115663707D01*
X166810414Y-115663703D01*
X166733543Y-115508847D01*
X166733541Y-115508844D01*
X166730510Y-115502738D01*
X166726236Y-115497422D01*
X166726233Y-115497417D01*
X166725858Y-115496951D01*
X166725718Y-115496613D01*
X166722558Y-115491671D01*
X166723444Y-115491104D01*
X166698762Y-115431329D01*
X166711446Y-115361474D01*
X166725858Y-115339049D01*
X166726233Y-115338583D01*
X166726238Y-115338576D01*
X166730510Y-115333262D01*
X166733678Y-115326881D01*
X166810414Y-115172297D01*
X166810415Y-115172293D01*
X166813447Y-115166186D01*
X166858572Y-114985199D01*
X166861500Y-114942250D01*
X166861500Y-114093750D01*
X166858572Y-114050801D01*
X166813447Y-113869814D01*
X166810415Y-113863707D01*
X166810414Y-113863703D01*
X166733543Y-113708847D01*
X166733541Y-113708844D01*
X166730510Y-113702738D01*
X166726238Y-113697424D01*
X166726233Y-113697417D01*
X166725858Y-113696951D01*
X166725718Y-113696613D01*
X166722558Y-113691671D01*
X166723444Y-113691104D01*
X166698762Y-113631329D01*
X166711446Y-113561474D01*
X166725858Y-113539049D01*
X166726233Y-113538583D01*
X166726238Y-113538576D01*
X166730510Y-113533262D01*
X166733678Y-113526881D01*
X166810414Y-113372297D01*
X166810415Y-113372293D01*
X166813447Y-113366186D01*
X166858572Y-113185199D01*
X166861500Y-113142250D01*
X166861500Y-112293750D01*
X166858572Y-112250801D01*
X166813447Y-112069814D01*
X166810415Y-112063707D01*
X166810414Y-112063703D01*
X166733543Y-111908847D01*
X166733541Y-111908844D01*
X166730510Y-111902738D01*
X166726238Y-111897424D01*
X166726233Y-111897417D01*
X166725858Y-111896951D01*
X166725718Y-111896613D01*
X166722558Y-111891671D01*
X166723444Y-111891104D01*
X166698762Y-111831329D01*
X166711446Y-111761474D01*
X166725858Y-111739049D01*
X166726233Y-111738583D01*
X166726238Y-111738576D01*
X166730510Y-111733262D01*
X166733543Y-111727153D01*
X166810414Y-111572297D01*
X166810415Y-111572293D01*
X166813447Y-111566186D01*
X166858572Y-111385199D01*
X166861500Y-111342250D01*
X166861500Y-110918000D01*
X167361496Y-110918000D01*
X167381458Y-111107928D01*
X167440473Y-111289556D01*
X167535960Y-111454944D01*
X167540378Y-111459851D01*
X167540379Y-111459852D01*
X167633078Y-111562805D01*
X167663747Y-111596866D01*
X167818248Y-111709118D01*
X167824276Y-111711802D01*
X167824278Y-111711803D01*
X167935842Y-111761474D01*
X167992712Y-111786794D01*
X168067318Y-111802652D01*
X168173056Y-111825128D01*
X168173061Y-111825128D01*
X168179513Y-111826500D01*
X168370487Y-111826500D01*
X168376939Y-111825128D01*
X168376944Y-111825128D01*
X168482682Y-111802652D01*
X168557288Y-111786794D01*
X168614158Y-111761474D01*
X168725722Y-111711803D01*
X168725724Y-111711802D01*
X168731752Y-111709118D01*
X168886253Y-111596866D01*
X168916922Y-111562805D01*
X169009621Y-111459852D01*
X169009622Y-111459851D01*
X169014040Y-111454944D01*
X169109527Y-111289556D01*
X169168542Y-111107928D01*
X169188504Y-110918000D01*
X169183204Y-110867576D01*
X169169232Y-110734635D01*
X169169232Y-110734633D01*
X169168542Y-110728072D01*
X169109527Y-110546444D01*
X169079104Y-110493750D01*
X169017344Y-110386778D01*
X169017341Y-110386774D01*
X169014040Y-110381056D01*
X169009618Y-110376145D01*
X169009616Y-110376142D01*
X168978864Y-110341988D01*
X168948147Y-110277981D01*
X168956091Y-110209460D01*
X168964678Y-110188730D01*
X168964679Y-110188727D01*
X168967838Y-110181100D01*
X168983500Y-110062135D01*
X168983499Y-109547366D01*
X168982538Y-109540062D01*
X168968917Y-109436595D01*
X168968917Y-109436594D01*
X168967838Y-109428400D01*
X168966852Y-109426020D01*
X168966852Y-109363660D01*
X168968429Y-109357776D01*
X168982462Y-109251184D01*
X168983000Y-109242975D01*
X168983000Y-109207865D01*
X168978525Y-109192626D01*
X168977135Y-109191421D01*
X168969452Y-109189750D01*
X168896140Y-109189750D01*
X168828019Y-109169748D01*
X168811294Y-109156269D01*
X168808987Y-109153263D01*
X168681875Y-109055726D01*
X168624979Y-109032159D01*
X168569698Y-108987611D01*
X168547277Y-108920247D01*
X168564835Y-108851456D01*
X168616797Y-108803078D01*
X168673197Y-108789750D01*
X168964884Y-108789750D01*
X168980123Y-108785275D01*
X168981328Y-108783885D01*
X168982999Y-108776202D01*
X168982999Y-108736527D01*
X168982461Y-108728315D01*
X168968428Y-108621717D01*
X168964190Y-108605902D01*
X168909247Y-108473257D01*
X168901059Y-108459074D01*
X168813656Y-108345170D01*
X168802080Y-108333594D01*
X168688176Y-108246191D01*
X168673993Y-108238003D01*
X168541351Y-108183061D01*
X168525531Y-108178822D01*
X168492960Y-108174534D01*
X168478778Y-108176745D01*
X168475000Y-108189902D01*
X168475000Y-108771636D01*
X168488394Y-108817253D01*
X168488394Y-108888249D01*
X168450010Y-108947975D01*
X168385429Y-108977468D01*
X168367499Y-108978750D01*
X168271795Y-108978751D01*
X168180378Y-108978751D01*
X168112258Y-108958749D01*
X168065765Y-108905094D01*
X168055660Y-108834820D01*
X168068242Y-108807269D01*
X168075000Y-108776202D01*
X168075000Y-108190285D01*
X168070956Y-108176514D01*
X168057417Y-108174485D01*
X168024467Y-108178822D01*
X168008652Y-108183060D01*
X167876007Y-108238003D01*
X167861824Y-108246191D01*
X167747920Y-108333594D01*
X167736344Y-108345170D01*
X167648941Y-108459074D01*
X167640753Y-108473257D01*
X167585810Y-108605900D01*
X167581572Y-108621718D01*
X167567538Y-108728316D01*
X167567000Y-108736525D01*
X167567000Y-108771635D01*
X167571475Y-108786874D01*
X167572865Y-108788079D01*
X167580548Y-108789750D01*
X167876802Y-108789750D01*
X167944923Y-108809752D01*
X167991416Y-108863408D01*
X168001520Y-108933682D01*
X167972026Y-108998262D01*
X167925020Y-109032159D01*
X167875752Y-109052566D01*
X167875750Y-109052567D01*
X167868124Y-109055726D01*
X167861574Y-109060752D01*
X167777868Y-109124983D01*
X167741013Y-109153263D01*
X167740165Y-109154368D01*
X167680642Y-109186871D01*
X167653859Y-109189750D01*
X167585116Y-109189750D01*
X167569877Y-109194225D01*
X167568672Y-109195615D01*
X167567001Y-109203298D01*
X167567001Y-109242973D01*
X167567539Y-109251185D01*
X167581571Y-109357775D01*
X167583148Y-109363659D01*
X167583148Y-109426020D01*
X167582162Y-109428400D01*
X167566500Y-109547365D01*
X167566501Y-110062134D01*
X167567039Y-110066219D01*
X167567039Y-110066223D01*
X167576191Y-110135743D01*
X167582162Y-110181100D01*
X167593910Y-110209463D01*
X167601499Y-110280050D01*
X167571138Y-110341987D01*
X167535960Y-110381056D01*
X167440473Y-110546444D01*
X167381458Y-110728072D01*
X167380768Y-110734633D01*
X167380768Y-110734635D01*
X167366796Y-110867576D01*
X167361496Y-110918000D01*
X166861500Y-110918000D01*
X166861500Y-110493750D01*
X166858572Y-110450801D01*
X166813447Y-110269814D01*
X166810415Y-110263707D01*
X166810414Y-110263703D01*
X166733543Y-110108847D01*
X166733541Y-110108844D01*
X166730510Y-110102738D01*
X166726236Y-110097422D01*
X166726233Y-110097417D01*
X166725858Y-110096951D01*
X166725718Y-110096613D01*
X166722558Y-110091671D01*
X166723444Y-110091104D01*
X166698762Y-110031329D01*
X166711446Y-109961474D01*
X166725858Y-109939049D01*
X166726233Y-109938583D01*
X166726238Y-109938576D01*
X166730510Y-109933262D01*
X166733678Y-109926881D01*
X166810414Y-109772297D01*
X166810415Y-109772293D01*
X166813447Y-109766186D01*
X166858572Y-109585199D01*
X166860870Y-109551489D01*
X166861354Y-109544397D01*
X166861354Y-109544386D01*
X166861500Y-109542250D01*
X166861500Y-108693750D01*
X166858572Y-108650801D01*
X166813447Y-108469814D01*
X166810415Y-108463707D01*
X166810414Y-108463703D01*
X166733543Y-108308847D01*
X166733541Y-108308844D01*
X166730510Y-108302738D01*
X166726238Y-108297424D01*
X166726233Y-108297417D01*
X166725858Y-108296951D01*
X166725718Y-108296613D01*
X166722558Y-108291671D01*
X166723444Y-108291104D01*
X166698762Y-108231329D01*
X166711446Y-108161474D01*
X166725858Y-108139049D01*
X166726233Y-108138583D01*
X166726238Y-108138576D01*
X166730510Y-108133262D01*
X166787238Y-108018984D01*
X166810414Y-107972297D01*
X166810415Y-107972293D01*
X166813447Y-107966186D01*
X166858572Y-107785199D01*
X166861500Y-107742250D01*
X166861500Y-106893750D01*
X166858572Y-106850801D01*
X166813447Y-106669814D01*
X166810415Y-106663707D01*
X166810414Y-106663703D01*
X166733543Y-106508847D01*
X166733541Y-106508844D01*
X166730510Y-106502738D01*
X166613631Y-106357369D01*
X166541167Y-106299107D01*
X166473578Y-106244764D01*
X166473577Y-106244763D01*
X166468262Y-106240490D01*
X166462156Y-106237459D01*
X166462153Y-106237457D01*
X166307297Y-106160586D01*
X166307293Y-106160585D01*
X166301186Y-106157553D01*
X166120199Y-106112428D01*
X166098941Y-106110979D01*
X166079397Y-106109646D01*
X166079386Y-106109646D01*
X166077250Y-106109500D01*
X165347594Y-106109500D01*
X165279473Y-106089498D01*
X165258499Y-106072595D01*
X163454405Y-104268500D01*
X163420379Y-104206188D01*
X163417500Y-104179405D01*
X163417500Y-99603427D01*
X163437502Y-99535306D01*
X163478618Y-99495550D01*
X163481994Y-99493896D01*
X163663860Y-99364173D01*
X163822096Y-99206489D01*
X163881594Y-99123689D01*
X163952453Y-99025077D01*
X163953640Y-99025930D01*
X164000960Y-98982362D01*
X164070897Y-98970145D01*
X164136338Y-98997678D01*
X164164166Y-99029511D01*
X164221694Y-99123388D01*
X164227777Y-99131699D01*
X164367213Y-99292667D01*
X164374580Y-99299883D01*
X164538434Y-99435916D01*
X164546881Y-99441831D01*
X164730756Y-99549279D01*
X164740042Y-99553729D01*
X164939001Y-99629703D01*
X164948899Y-99632579D01*
X165052250Y-99653606D01*
X165066299Y-99652410D01*
X165070000Y-99642065D01*
X165070000Y-98195000D01*
X165090002Y-98126879D01*
X165143658Y-98080386D01*
X165196000Y-98069000D01*
X165452000Y-98069000D01*
X165520121Y-98089002D01*
X165566614Y-98142658D01*
X165578000Y-98195000D01*
X165578000Y-99641517D01*
X165582064Y-99655359D01*
X165595478Y-99657393D01*
X165602184Y-99656534D01*
X165612262Y-99654392D01*
X165816255Y-99593191D01*
X165825842Y-99589433D01*
X166017095Y-99495739D01*
X166025945Y-99490464D01*
X166199328Y-99366792D01*
X166207193Y-99360145D01*
X166311897Y-99255805D01*
X166374268Y-99221889D01*
X166445075Y-99227077D01*
X166501837Y-99269723D01*
X166518819Y-99300826D01*
X166563385Y-99419705D01*
X166650739Y-99536261D01*
X166767295Y-99623615D01*
X166903684Y-99674745D01*
X166965866Y-99681500D01*
X168762134Y-99681500D01*
X168824316Y-99674745D01*
X168960705Y-99623615D01*
X169077261Y-99536261D01*
X169164615Y-99419705D01*
X169215745Y-99283316D01*
X169222500Y-99221134D01*
X169222500Y-97424866D01*
X169215745Y-97362684D01*
X169164615Y-97226295D01*
X169077261Y-97109739D01*
X168960705Y-97022385D01*
X168950294Y-97018482D01*
X168948597Y-97017207D01*
X168944425Y-97014923D01*
X168944755Y-97014321D01*
X168893529Y-96975840D01*
X168868830Y-96909278D01*
X168884038Y-96839929D01*
X168934324Y-96789811D01*
X168994524Y-96774500D01*
X169545500Y-96774500D01*
X169613621Y-96794502D01*
X169660114Y-96848158D01*
X169671500Y-96900500D01*
X169671500Y-121285500D01*
X169651498Y-121353621D01*
X169597842Y-121400114D01*
X169545500Y-121411500D01*
X143382500Y-121411500D01*
X143314379Y-121391498D01*
X143267886Y-121337842D01*
X143256500Y-121285500D01*
X143256500Y-120342250D01*
X151844500Y-120342250D01*
X151847428Y-120385199D01*
X151892553Y-120566186D01*
X151895585Y-120572293D01*
X151895586Y-120572297D01*
X151972457Y-120727153D01*
X151975490Y-120733262D01*
X151979763Y-120738577D01*
X151979764Y-120738578D01*
X152019634Y-120788166D01*
X152092369Y-120878631D01*
X152237738Y-120995510D01*
X152243844Y-120998541D01*
X152243847Y-120998543D01*
X152398703Y-121075414D01*
X152398707Y-121075415D01*
X152404814Y-121078447D01*
X152585801Y-121123572D01*
X152607059Y-121125021D01*
X152626603Y-121126354D01*
X152626614Y-121126354D01*
X152628750Y-121126500D01*
X153567250Y-121126500D01*
X153569386Y-121126354D01*
X153569397Y-121126354D01*
X153588941Y-121125021D01*
X153610199Y-121123572D01*
X153791186Y-121078447D01*
X153797293Y-121075415D01*
X153797297Y-121075414D01*
X153952153Y-120998543D01*
X153952156Y-120998541D01*
X153958262Y-120995510D01*
X154103631Y-120878631D01*
X154176307Y-120788240D01*
X154234580Y-120747684D01*
X154305529Y-120745071D01*
X154325752Y-120752085D01*
X154397677Y-120784108D01*
X154397685Y-120784111D01*
X154403712Y-120786794D01*
X154497113Y-120806647D01*
X154584056Y-120825128D01*
X154584061Y-120825128D01*
X154590513Y-120826500D01*
X154781487Y-120826500D01*
X154787939Y-120825128D01*
X154787944Y-120825128D01*
X154874887Y-120806647D01*
X154968288Y-120786794D01*
X155032588Y-120758166D01*
X155136722Y-120711803D01*
X155136724Y-120711802D01*
X155142752Y-120709118D01*
X155297253Y-120596866D01*
X155333851Y-120556220D01*
X155420621Y-120459852D01*
X155420622Y-120459851D01*
X155425040Y-120454944D01*
X155500053Y-120325018D01*
X155517223Y-120295279D01*
X155517224Y-120295278D01*
X155520527Y-120289556D01*
X155579542Y-120107928D01*
X155599504Y-119918000D01*
X155579542Y-119728072D01*
X155520527Y-119546444D01*
X155503207Y-119516444D01*
X155428341Y-119386774D01*
X155425040Y-119381056D01*
X155403177Y-119356774D01*
X155301675Y-119244045D01*
X155301674Y-119244044D01*
X155297253Y-119239134D01*
X155142752Y-119126882D01*
X155136724Y-119124198D01*
X155136722Y-119124197D01*
X154974319Y-119051891D01*
X154974318Y-119051891D01*
X154968288Y-119049206D01*
X154870762Y-119028476D01*
X154787944Y-119010872D01*
X154787939Y-119010872D01*
X154781487Y-119009500D01*
X154590513Y-119009500D01*
X154584061Y-119010872D01*
X154584056Y-119010872D01*
X154501238Y-119028476D01*
X154403712Y-119049206D01*
X154399781Y-119050956D01*
X154329665Y-119052960D01*
X154268867Y-119016298D01*
X154237542Y-118952585D01*
X154245634Y-118882052D01*
X154248836Y-118875075D01*
X154299942Y-118772124D01*
X154304626Y-118759391D01*
X154346728Y-118590528D01*
X154348452Y-118579582D01*
X154350854Y-118544357D01*
X154351000Y-118540062D01*
X154351000Y-118390115D01*
X154346525Y-118374876D01*
X154345135Y-118373671D01*
X154337452Y-118372000D01*
X151863115Y-118372000D01*
X151847876Y-118376475D01*
X151846671Y-118377865D01*
X151845000Y-118385548D01*
X151845000Y-118540062D01*
X151845146Y-118544357D01*
X151847548Y-118579582D01*
X151849272Y-118590528D01*
X151891374Y-118759391D01*
X151896058Y-118772123D01*
X151972881Y-118926881D01*
X151980188Y-118938306D01*
X151980464Y-118938650D01*
X151980567Y-118938899D01*
X151983866Y-118944058D01*
X151982941Y-118944649D01*
X152007559Y-119004273D01*
X151994875Y-119074128D01*
X151980462Y-119096554D01*
X151975490Y-119102738D01*
X151972459Y-119108844D01*
X151972457Y-119108847D01*
X151895586Y-119263703D01*
X151895585Y-119263707D01*
X151892553Y-119269814D01*
X151847428Y-119450801D01*
X151844500Y-119493750D01*
X151844500Y-120342250D01*
X143256500Y-120342250D01*
X143256500Y-116742250D01*
X151844500Y-116742250D01*
X151847428Y-116785199D01*
X151892553Y-116966186D01*
X151895585Y-116972293D01*
X151895586Y-116972297D01*
X151972457Y-117127153D01*
X151975490Y-117133262D01*
X151979763Y-117138577D01*
X151979764Y-117138578D01*
X151980462Y-117139446D01*
X151980722Y-117140076D01*
X151983442Y-117144329D01*
X151982680Y-117144817D01*
X152007559Y-117205068D01*
X151994876Y-117274922D01*
X151980464Y-117297350D01*
X151980188Y-117297694D01*
X151972881Y-117309119D01*
X151896058Y-117463877D01*
X151891374Y-117476609D01*
X151849272Y-117645472D01*
X151847548Y-117656418D01*
X151845146Y-117691643D01*
X151845000Y-117695939D01*
X151845000Y-117845885D01*
X151849475Y-117861124D01*
X151850865Y-117862329D01*
X151858548Y-117864000D01*
X154332885Y-117864000D01*
X154348124Y-117859525D01*
X154349329Y-117858135D01*
X154351000Y-117850452D01*
X154351000Y-117695939D01*
X154350854Y-117691643D01*
X154348452Y-117656418D01*
X154346728Y-117645472D01*
X154304626Y-117476609D01*
X154299942Y-117463877D01*
X154223119Y-117309119D01*
X154215812Y-117297694D01*
X154215536Y-117297350D01*
X154215433Y-117297101D01*
X154212134Y-117291942D01*
X154213059Y-117291351D01*
X154188441Y-117231727D01*
X154201125Y-117161872D01*
X154215538Y-117139446D01*
X154216236Y-117138578D01*
X154216237Y-117138577D01*
X154220510Y-117133262D01*
X154223543Y-117127153D01*
X154300414Y-116972297D01*
X154300415Y-116972293D01*
X154303447Y-116966186D01*
X154348572Y-116785199D01*
X154351500Y-116742250D01*
X154351500Y-115893750D01*
X154348572Y-115850801D01*
X154303447Y-115669814D01*
X154300415Y-115663707D01*
X154300414Y-115663703D01*
X154223543Y-115508847D01*
X154223541Y-115508844D01*
X154220510Y-115502738D01*
X154215538Y-115496554D01*
X154215278Y-115495924D01*
X154212558Y-115491671D01*
X154213320Y-115491183D01*
X154188441Y-115430932D01*
X154201124Y-115361078D01*
X154215536Y-115338650D01*
X154215812Y-115338306D01*
X154223119Y-115326881D01*
X154299942Y-115172123D01*
X154304626Y-115159391D01*
X154346728Y-114990528D01*
X154348452Y-114979582D01*
X154350854Y-114944357D01*
X154351000Y-114940062D01*
X154351000Y-114790115D01*
X154346525Y-114774876D01*
X154345135Y-114773671D01*
X154337452Y-114772000D01*
X151863115Y-114772000D01*
X151847876Y-114776475D01*
X151846671Y-114777865D01*
X151845000Y-114785548D01*
X151845000Y-114940062D01*
X151845146Y-114944357D01*
X151847548Y-114979582D01*
X151849272Y-114990528D01*
X151891374Y-115159391D01*
X151896058Y-115172123D01*
X151972881Y-115326881D01*
X151980188Y-115338306D01*
X151980464Y-115338650D01*
X151980567Y-115338899D01*
X151983866Y-115344058D01*
X151982941Y-115344649D01*
X152007559Y-115404273D01*
X151994875Y-115474128D01*
X151980462Y-115496554D01*
X151975490Y-115502738D01*
X151972459Y-115508844D01*
X151972457Y-115508847D01*
X151895586Y-115663703D01*
X151895585Y-115663707D01*
X151892553Y-115669814D01*
X151847428Y-115850801D01*
X151844500Y-115893750D01*
X151844500Y-116742250D01*
X143256500Y-116742250D01*
X143256500Y-114245885D01*
X151845000Y-114245885D01*
X151849475Y-114261124D01*
X151850865Y-114262329D01*
X151858548Y-114264000D01*
X152825885Y-114264000D01*
X152841124Y-114259525D01*
X152842329Y-114258135D01*
X152844000Y-114250452D01*
X152844000Y-114245885D01*
X153352000Y-114245885D01*
X153356475Y-114261124D01*
X153357865Y-114262329D01*
X153365548Y-114264000D01*
X154332885Y-114264000D01*
X154348124Y-114259525D01*
X154349329Y-114258135D01*
X154351000Y-114250452D01*
X154351000Y-114095939D01*
X154350854Y-114091643D01*
X154348452Y-114056418D01*
X154346728Y-114045472D01*
X154304626Y-113876609D01*
X154299942Y-113863877D01*
X154223119Y-113709119D01*
X154215812Y-113697693D01*
X154215217Y-113696953D01*
X154214995Y-113696416D01*
X154212134Y-113691942D01*
X154212936Y-113691429D01*
X154188120Y-113631330D01*
X154200803Y-113561476D01*
X154215217Y-113539047D01*
X154215812Y-113538307D01*
X154223119Y-113526881D01*
X154299942Y-113372123D01*
X154304626Y-113359391D01*
X154346728Y-113190528D01*
X154348452Y-113179582D01*
X154350854Y-113144357D01*
X154351000Y-113140062D01*
X154351000Y-112990115D01*
X154346525Y-112974876D01*
X154345135Y-112973671D01*
X154337452Y-112972000D01*
X153370115Y-112972000D01*
X153354876Y-112976475D01*
X153353671Y-112977865D01*
X153352000Y-112985548D01*
X153352000Y-114245885D01*
X152844000Y-114245885D01*
X152844000Y-112990115D01*
X152839525Y-112974876D01*
X152838135Y-112973671D01*
X152830452Y-112972000D01*
X151863115Y-112972000D01*
X151847876Y-112976475D01*
X151846671Y-112977865D01*
X151845000Y-112985548D01*
X151845000Y-113140062D01*
X151845146Y-113144357D01*
X151847548Y-113179582D01*
X151849272Y-113190528D01*
X151891374Y-113359391D01*
X151896058Y-113372123D01*
X151972881Y-113526881D01*
X151980188Y-113538307D01*
X151980783Y-113539047D01*
X151981005Y-113539584D01*
X151983866Y-113544058D01*
X151983064Y-113544571D01*
X152007880Y-113604670D01*
X151995197Y-113674524D01*
X151980783Y-113696953D01*
X151980188Y-113697693D01*
X151972881Y-113709119D01*
X151896058Y-113863877D01*
X151891374Y-113876609D01*
X151849272Y-114045472D01*
X151847548Y-114056418D01*
X151845146Y-114091643D01*
X151845000Y-114095939D01*
X151845000Y-114245885D01*
X143256500Y-114245885D01*
X143256500Y-111231359D01*
X143771386Y-111231359D01*
X143780099Y-111242879D01*
X143868586Y-111307760D01*
X143876505Y-111312708D01*
X144092877Y-111426547D01*
X144101451Y-111430275D01*
X144332282Y-111510885D01*
X144341291Y-111513299D01*
X144581518Y-111558908D01*
X144590775Y-111559962D01*
X144835107Y-111569563D01*
X144844420Y-111569237D01*
X145087478Y-111542618D01*
X145096655Y-111540917D01*
X145333107Y-111478665D01*
X145341926Y-111475628D01*
X145566584Y-111379107D01*
X145574856Y-111374800D01*
X145782777Y-111246135D01*
X145784620Y-111244796D01*
X145792038Y-111233541D01*
X145790760Y-111231359D01*
X148851386Y-111231359D01*
X148860099Y-111242879D01*
X148948586Y-111307760D01*
X148956505Y-111312708D01*
X149172877Y-111426547D01*
X149181451Y-111430275D01*
X149412282Y-111510885D01*
X149421291Y-111513299D01*
X149661518Y-111558908D01*
X149670775Y-111559962D01*
X149915107Y-111569563D01*
X149924420Y-111569237D01*
X150167478Y-111542618D01*
X150176655Y-111540917D01*
X150413107Y-111478665D01*
X150421926Y-111475628D01*
X150646584Y-111379107D01*
X150654856Y-111374800D01*
X150862777Y-111246135D01*
X150864620Y-111244796D01*
X150872038Y-111233541D01*
X150865974Y-111223184D01*
X149872812Y-110230022D01*
X149858868Y-110222408D01*
X149857035Y-110222539D01*
X149850420Y-110226790D01*
X148858044Y-111219166D01*
X148851386Y-111231359D01*
X145790760Y-111231359D01*
X145785974Y-111223184D01*
X144792812Y-110230022D01*
X144778868Y-110222408D01*
X144777035Y-110222539D01*
X144770420Y-110226790D01*
X143778044Y-111219166D01*
X143771386Y-111231359D01*
X143256500Y-111231359D01*
X143256500Y-110992283D01*
X143276502Y-110924162D01*
X143330158Y-110877669D01*
X143391639Y-110866615D01*
X143404847Y-110867576D01*
X143418850Y-110859940D01*
X144407978Y-109870812D01*
X144415592Y-109856868D01*
X144415461Y-109855035D01*
X144411210Y-109848420D01*
X143416828Y-108854038D01*
X143402885Y-108846424D01*
X143391490Y-108847239D01*
X143322116Y-108832148D01*
X143271913Y-108781947D01*
X143256500Y-108721560D01*
X143256500Y-105912283D01*
X143276502Y-105844162D01*
X143330158Y-105797669D01*
X143391639Y-105786615D01*
X143404847Y-105787576D01*
X143418850Y-105779940D01*
X144407978Y-104790812D01*
X144415592Y-104776868D01*
X144415461Y-104775035D01*
X144411210Y-104768420D01*
X143416828Y-103774038D01*
X143402885Y-103766424D01*
X143391490Y-103767239D01*
X143322116Y-103752148D01*
X143271913Y-103701947D01*
X143256500Y-103641560D01*
X143256500Y-96900500D01*
X143276502Y-96832379D01*
X143330158Y-96785886D01*
X143382500Y-96774500D01*
X144577629Y-96774500D01*
X144645750Y-96794502D01*
G37*
%TD.AperFunction*%
%TD*%
M02*
