M48
; DRILL file {KiCad (6.0.10-0)} date Wednesday, February 01, 2023 at 10:05:38 PM
; FORMAT={-:-/ absolute / inch / decimal}
; #@! TF.CreationDate,2023-02-01T22:05:38-08:00
; #@! TF.GenerationSoftware,Kicad,Pcbnew,(6.0.10-0)
; #@! TF.FileFunction,Plated,1,2,PTH
FMAT,2
INCH
; #@! TA.AperFunction,Plated,PTH,ViaDrill
T1C0.0079
; #@! TA.AperFunction,Plated,PTH,ViaDrill
T2C0.0157
; #@! TA.AperFunction,Plated,PTH,ComponentDrill
T3C0.0394
; #@! TA.AperFunction,Plated,PTH,ComponentDrill
T4C0.0630
%
G90
G05
T1
X5.73Y-4.195
X5.73Y-4.255
X5.77Y-4.16
X5.77Y-4.295
X5.83Y-4.16
X5.83Y-4.295
X5.87Y-4.195
X5.87Y-4.255
T2
X6.0869Y-4.3669
X6.09Y-4.7212
X6.62Y-4.72
X6.625Y-4.3669
T3
X5.7088Y-3.871
X5.8088Y-3.871
X5.9088Y-3.871
X6.0088Y-3.871
X6.1088Y-3.871
X6.2088Y-3.871
X6.3088Y-3.871
X6.4088Y-3.871
X6.5088Y-3.871
X6.6088Y-3.871
T4
X5.7Y-4.1251
X5.7Y-4.3251
X5.8Y-4.2251
X5.9Y-4.1251
X5.9Y-4.3251
T0
M30
